<?xml version="1.0" encoding="UTF-8" standalone="no" ?>
<!DOCTYPE svg PUBLIC "-//W3C//DTD SVG 1.1//EN" "http://www.w3.org/Graphics/SVG/1.1/DTD/svg11.dtd">
<svg xmlns="http://www.w3.org/2000/svg" xmlns:xlink="http://www.w3.org/1999/xlink" version="1.1" width="1080" height="1080" viewBox="0 0 1080 1080" xml:space="preserve">
<desc>Created with Fabric.js 5.2.4</desc>
<defs>
</defs>
<g transform="matrix(1 0 0 1 540 540)" id="140d7dcf-3289-472e-a5f2-8c5f28391641"  >
<rect style="stroke: none; stroke-width: 1; stroke-dasharray: none; stroke-linecap: butt; stroke-dashoffset: 0; stroke-linejoin: miter; stroke-miterlimit: 4; fill: rgb(255,255,255); fill-rule: nonzero; opacity: 1; visibility: hidden;" vector-effect="non-scaling-stroke"  x="-540" y="-540" rx="0" ry="0" width="1080" height="1080" />
</g>
<g transform="matrix(1 0 0 1 540 540)" id="fde6519d-c617-4192-a530-7577dc7a07b9"  >
</g>
<g transform="matrix(1 0 0 1 540 540)"  >
<rect style="stroke: none; stroke-width: 1; stroke-dasharray: none; stroke-linecap: butt; stroke-dashoffset: 0; stroke-linejoin: miter; stroke-miterlimit: 4; fill: rgb(255,255,255); fill-rule: nonzero; opacity: 1; visibility: hidden;" vector-effect="non-scaling-stroke"  x="-540" y="-540" rx="0" ry="0" width="1080" height="1080" />
</g>
<g transform="matrix(1 0 0 1 515.66 540)"  >
<path style="stroke: none; stroke-width: 1; stroke-dasharray: none; stroke-linecap: butt; stroke-dashoffset: 0; stroke-linejoin: miter; stroke-miterlimit: 4; fill: rgb(169,151,223); fill-rule: nonzero; opacity: 0.1;" vector-effect="non-scaling-stroke"  transform=" translate(-494.59, -386.16)" d="M 104.4 77.33 C 97.94000000000001 80.01 91.31 83.45 87.76 89.48 C 84 95.85000000000001 84.45 103.76 85.15 111.13 C 91.25 175.05 107.32000000000001 243.03 79.57000000000001 300.93 C 66.10000000000001 329.02 43.57000000000001 351.53000000000003 25.650000000000006 377.04 C 7.730000000000004 402.55 -5.8 434.4 2.52 464.41 C 12.68 501.08000000000004 50.6 521.4100000000001 76.16 549.63 C 92.89 568.08 104.62 590.5 120.22999999999999 609.91 C 135.83999999999997 629.3199999999999 157.23 646.42 182.14999999999998 647.56 C 217.98999999999998 649.2099999999999 247.14999999999998 618.26 282.28999999999996 611.0899999999999 C 318.28999999999996 603.7499999999999 354.53999999999996 622.43 383.72999999999996 644.79 C 412.91999999999996 667.15 439.46999999999997 694.24 473.47999999999996 708.1999999999999 C 511.03999999999996 723.6299999999999 553.38 721.27 592.92 730.54 C 628.92 738.99 662.06 756.9599999999999 697.8 766.54 C 733.54 776.12 775.43 775.54 803.1199999999999 751.0699999999999 C 839.2099999999999 719.0699999999999 836.3699999999999 662.0699999999999 859.4199999999998 619.7399999999999 C 880.8299999999998 580.4099999999999 922.7399999999999 556.9299999999998 950.9499999999998 522.1599999999999 C 1001.7099999999998 459.57999999999987 1000.0499999999998 363.92999999999984 956.9499999999998 295.8699999999999 C 913.8499999999998 227.80999999999995 835.7799999999999 186.5999999999999 755.9499999999998 175.8699999999999 C 719.9499999999998 171.03999999999988 682.8799999999999 171.6999999999999 648.2699999999998 160.7099999999999 C 555.63 131.31 500.5 25.97 405.92 4.05 C 345.8 -9.86 287.33 14.23 236.12 43.88 C 191.67000000000002 69.62 150.66000000000003 58.14 104.4 77.33000000000001 z" stroke-linecap="round" />
</g>
<g transform="matrix(1 0 0 1 151.28 469.33)"  >
<path style="stroke: rgb(83,84,97); stroke-width: 2; stroke-dasharray: none; stroke-linecap: butt; stroke-dashoffset: 0; stroke-linejoin: miter; stroke-miterlimit: 10; fill: none; fill-rule: nonzero; opacity: 1;" vector-effect="non-scaling-stroke"  transform=" translate(-130.19, -315.49)" d="M 194.68 283.83 C 194.68 283.83 160.55 316.03999999999996 123.92 317 C 108.53805513227918 317.3062262420441 93.67056013019106 322.59424015947315 81.54999999999998 332.07 C 75.82085610677791 336.5990535790414 70.51869672326606 341.6434691036326 65.70999999999997 347.1400000000001" stroke-linecap="round" />
</g>
<g transform="matrix(1 0 0 1 130.5 480.24)"  >
<path style="stroke: none; stroke-width: 1; stroke-dasharray: none; stroke-linecap: butt; stroke-dashoffset: 0; stroke-linejoin: miter; stroke-miterlimit: 4; fill: rgb(151,213,200); fill-rule: nonzero; opacity: 1;" vector-effect="non-scaling-stroke"  transform=" translate(-109.42, -326.4)" d="M 42.61 347.93 C 47.53 345.43 66.31 347.09000000000003 66.31 347.09000000000003 C 66.31 347.09000000000003 56.57 363.24 51.650000000000006 365.74 C 48.43864616937659 367.6437011884367 44.43428237305498 367.60009389669614 41.265147603187586 365.6269095538806 C 38.09601283332019 363.65372521106497 36.2898650404084 360.07955941198065 36.58111308728093 356.3577256951809 C 36.872361134153465 352.63589197838104 39.212503305526226 349.38618958786174 42.650000000000006 347.93 z M 62.38 319.38 C 67.87 319.96 82.73 331.56 82.73 331.56 C 82.73 331.56 65.73 339.82 60.290000000000006 339.25 C 55.002683256703364 338.4511578561728 51.27940808945195 333.63413803907525 51.83877352465766 328.31615182015776 C 52.39813895986338 322.99816560124026 57.04218522729292 319.06125156162045 62.38000000000001 319.38 z M 109.26 296.37 C 113.7 299.64 120.68 317.16 120.68 317.16 C 120.68 317.16 101.87 315.73 97.43 312.47 C 93.27275688122617 309.1112053720926 92.49142267401736 303.07718373877776 95.65605058103645 298.77029368780507 C 98.82067848805553 294.4634036368323 104.81252409568559 293.4061967370295 109.26 296.37 z M 148.65 286.96 C 153.58 289.43 163.42000000000002 305.52 163.42000000000002 305.52 C 163.42000000000002 305.52 144.64000000000001 307.28999999999996 139.71 304.82 C 136.32125811704233 303.34026312413056 134.025668854273 300.1112927059465 133.74135031163095 296.4245114895696 C 133.4570317689889 292.7377302731928 135.2303961343803 289.19496880049815 138.3521885127511 287.21315016160474 C 141.47398089112193 285.2313315227114 145.43459957615164 285.1339679944111 148.65 286.96 z M 93.18 349.77 C 94.82000000000001 344.5 90.02000000000001 326.26 90.02000000000001 326.26 C 90.02000000000001 326.26 75.74000000000001 338.58 74.10000000000001 343.84999999999997 C 72.84116147007326 347.31477417321264 73.59061683710279 351.19113660742244 76.05021691342166 353.93698838425996 C 78.50981698974054 356.68284016109754 82.28062827877189 357.8528193451157 85.86254233893362 356.9814834848381 C 89.44445639909534 356.11014762456057 92.25650662763925 353.3388225659166 93.18 349.77 z M 139.11 338.14 C 139.11 332.62 129.06 316.65999999999997 129.06 316.65999999999997 C 129.06 316.65999999999997 119.12 332.65999999999997 119.13 338.2 C 119.14656854249492 343.72284749830794 123.63715250169206 348.1865685424949 129.16 348.16999999999996 C 134.68284749830792 348.15343145750506 139.14656854249492 343.66284749830794 139.13 338.14 z M 182.2 320.78 C 183.11999999999998 315.34 175.92 297.90999999999997 175.92 297.90999999999997 C 175.92 297.90999999999997 163.41 312.03 162.5 317.46999999999997 C 161.86164507388773 322.77140864422256 165.5009855092772 327.63905861772884 170.76643845904943 328.526434444797 C 176.03189140882165 329.41381027186526 181.06557345250076 326.00780672630356 182.2 320.78999999999996 z" stroke-linecap="round" />
</g>
<g transform="matrix(1 0 0 1 210.14 300.74)"  >
<path style="stroke: rgb(83,84,97); stroke-width: 2; stroke-dasharray: none; stroke-linecap: butt; stroke-dashoffset: 0; stroke-linejoin: miter; stroke-miterlimit: 10; fill: none; fill-rule: nonzero; opacity: 1;" vector-effect="non-scaling-stroke"  transform=" translate(-189.06, -146.9)" d="M 239.03 198.53 C 239.03 198.53 197.92000000000002 175.95 185.7 141.36 C 180.679606700046 126.81475585186921 171.075419717991 114.29106446021616 158.32999999999998 105.67 C 152.24784911974595 101.62283957836217 145.80758147370838 98.14161382374726 139.08999999999997 95.27000000000002" stroke-linecap="round" />
</g>
<g transform="matrix(1 0 0 1 189.41 288.39)"  >
<path style="stroke: none; stroke-width: 1; stroke-dasharray: none; stroke-linecap: butt; stroke-dashoffset: 0; stroke-linejoin: miter; stroke-miterlimit: 4; fill: rgb(151,213,200); fill-rule: nonzero; opacity: 1;" vector-effect="non-scaling-stroke"  transform=" translate(-168.33, -134.55)" d="M 131.29 73.52 C 135.17999999999998 77.42999999999999 139.37 95.82 139.37 95.82 C 139.37 95.82 121.01 91.52 117.12 87.6 C 113.55205381103086 83.63775061887935 113.72039608896557 77.57302800137238 117.50264430030654 73.81480253802158 C 121.28489251164751 70.05657707467077 127.35056463409414 69.92688030210228 131.29 73.52 z M 164.54 83.55 C 165.67999999999998 88.95 159.20999999999998 106.66 159.20999999999998 106.66 C 159.20999999999998 106.66 146.14 93.07 144.99999999999997 87.66 C 144.07833439243805 84.09629685839045 145.18899178991256 80.31437462263528 147.89125454610854 77.81492997028623 C 150.59351730230452 75.31548531793717 154.45043698470354 74.50267155366689 157.9315573353111 75.699019612664 C 161.41267768591865 76.89536767166112 163.95511114795724 79.90743137333986 164.54999999999998 83.53999999999999 z M 200.84 121.14 C 199.1 126.37 184.57 138.4 184.57 138.4 C 184.57 138.4 180.15 120.07000000000001 181.89 114.83000000000001 C 183.63245838571615 109.58329487660748 189.29829487660746 106.74254161428387 194.545 108.48500000000001 C 199.79170512339252 110.22745838571616 202.63245838571615 115.89329487660747 200.89 121.14000000000001 z M 221.92 155.69 C 221.08999999999997 161.14 208.79999999999998 175.45 208.79999999999998 175.45 C 208.79999999999998 175.45 201.33999999999997 158.13 202.17 152.67999999999998 C 202.5467069014599 149.0110277343828 204.91239479170537 145.8472735995644 208.3251062845966 144.44846487719957 C 211.7378177774878 143.04965615483474 215.64343726563663 143.64291481126241 218.48684535248927 145.99202017865161 C 221.3302534393419 148.34112554604084 222.6497712509646 152.06465776215563 221.92 155.67999999999998 z M 145.08 122.21 C 150.60000000000002 122.14999999999999 166.48000000000002 111.97 166.48000000000002 111.97 C 166.48000000000002 111.97 150.37 102.17 144.85000000000002 102.23 C 139.3271525016921 102.29351274623055 134.9014872537695 106.82215250169207 134.96500000000003 112.345 C 135.02851274623055 117.86784749830794 139.5571525016921 122.29351274623055 145.08 122.23 z M 170.24 162.35 C 175.48000000000002 160.64 187.59 146.18 187.59 146.18 C 187.59 146.18 169.28 141.65 164.04 143.36 C 160.5186472803645 144.36494511689196 157.82822064657367 147.21425008999776 157.02674467910958 150.7874105870405 C 156.2252687116455 154.36057108408326 157.44094564444813 158.0860326523494 160.19570405914993 160.4987377194222 C 162.95046247385173 162.91144278649503 166.80365761369575 163.62546065451997 170.23999999999998 162.36 z M 200.04 198.01 C 205.5 197.20999999999998 219.88 185.01 219.88 185.01 C 219.88 185.01 202.6 177.45 197.15 178.25 C 193.49423872835294 178.62680080918383 190.33974696594788 180.97849948398516 188.93481333078026 184.37448694065384 C 187.52987969561264 187.7704743973225 188.10092728424763 191.66344364812036 190.42198238715707 194.51287736981567 C 192.74303749006648 197.36231109151095 196.4400322719134 198.70898644924955 200.05 198.02 z" stroke-linecap="round" />
</g>
<g transform="matrix(1 0 0 1 543.02 538.25)"  >
<linearGradient id="SVGID_SVGID_12_3" gradientUnits="userSpaceOnUse" gradientTransform="matrix(1 0 0 1 -521.94 -384.41)"  x1="521.94" y1="746.41" x2="521.94" y2="22.41">
<stop offset="0%" style="stop-color:rgb(128,128,128);stop-opacity: 0.25"/>
<stop offset="54%" style="stop-color:rgb(128,128,128);stop-opacity: 0.12"/>
<stop offset="100%" style="stop-color:rgb(128,128,128);stop-opacity: 0.1"/>
</linearGradient>
<circle style="stroke: none; stroke-width: 1; stroke-dasharray: none; stroke-linecap: butt; stroke-dashoffset: 0; stroke-linejoin: miter; stroke-miterlimit: 4; fill: url(#SVGID_SVGID_12_3); fill-rule: nonzero; opacity: 1;" vector-effect="non-scaling-stroke"  cx="0" cy="0" r="362" />
</g>
<g transform="matrix(1 0 0 1 543.02 538.25)"  >
<circle style="stroke: none; stroke-width: 1; stroke-dasharray: none; stroke-linecap: butt; stroke-dashoffset: 0; stroke-linejoin: miter; stroke-miterlimit: 4; fill: rgb(151,213,200); fill-rule: nonzero; opacity: 1;" vector-effect="non-scaling-stroke"  cx="0" cy="0" r="356" />
</g>
<g transform="matrix(1 0 0 1 543.02 538.25)"  >
<circle style="stroke: none; stroke-width: 1; stroke-dasharray: none; stroke-linecap: butt; stroke-dashoffset: 0; stroke-linejoin: miter; stroke-miterlimit: 4; fill: rgb(221,225,236); fill-rule: nonzero; opacity: 1;" vector-effect="non-scaling-stroke"  cx="0" cy="0" r="283" />
</g>
<g transform="matrix(1 0 0 1 543.02 430.25)"  >
<path style="stroke: none; stroke-width: 1; stroke-dasharray: none; stroke-linecap: butt; stroke-dashoffset: 0; stroke-linejoin: miter; stroke-miterlimit: 4; fill: rgb(83,84,97); fill-rule: nonzero; opacity: 0.3;" vector-effect="non-scaling-stroke"  transform=" translate(-521.94, -276.41)" d="M 513.94 151.41 L 529.94 151.41 L 529.94 401.40999999999997 L 513.94 401.40999999999997 z" stroke-linecap="round" />
</g>
<g transform="matrix(1 0 0 1 588.6 504.84)"  >
<path style="stroke: none; stroke-width: 1; stroke-dasharray: none; stroke-linecap: butt; stroke-dashoffset: 0; stroke-linejoin: miter; stroke-miterlimit: 4; fill: rgb(0,0,0); fill-rule: nonzero; opacity: 0.1;" vector-effect="non-scaling-stroke"  transform=" translate(-567.52, -351)" d="M 538.94 378.41 L 764.94 378.41 L 764.94 398.41 L 538.94 398.41 z M 370.103 321.302 L 379.382 303.584 L 521.583 378.052 L 512.305 395.769 z" stroke-linecap="round" />
</g>
<g transform="matrix(1 0 0 1 543.02 542.25)"  >
<circle style="stroke: none; stroke-width: 1; stroke-dasharray: none; stroke-linecap: butt; stroke-dashoffset: 0; stroke-linejoin: miter; stroke-miterlimit: 4; fill: rgb(0,0,0); fill-rule: nonzero; opacity: 0.1;" vector-effect="non-scaling-stroke"  cx="0" cy="0" r="30" />
</g>
<g transform="matrix(1 0 0 1 588.64 500.85)"  >
<path style="stroke: none; stroke-width: 1; stroke-dasharray: none; stroke-linecap: butt; stroke-dashoffset: 0; stroke-linejoin: miter; stroke-miterlimit: 4; fill: rgb(83,84,97); fill-rule: nonzero; opacity: 1;" vector-effect="non-scaling-stroke"  transform=" translate(-567.55, -347.01)" d="M 538.94 374.41 L 764.94 374.41 L 764.94 394.41 L 538.94 394.41 z M 379.447 299.607 L 521.649 374.07500000000005 L 512.37 391.79200000000003 L 370.169 317.32500000000005 z" stroke-linecap="round" />
</g>
<g transform="matrix(1 0 0 1 543.02 538.25)"  >
<circle style="stroke: none; stroke-width: 1; stroke-dasharray: none; stroke-linecap: butt; stroke-dashoffset: 0; stroke-linejoin: miter; stroke-miterlimit: 4; fill: rgb(83,84,97); fill-rule: nonzero; opacity: 1;" vector-effect="non-scaling-stroke"  cx="0" cy="0" r="30" />
</g>
<g transform="matrix(1 0 0 1 699.3 556.33)"  >
<path style="stroke: none; stroke-width: 1; stroke-dasharray: none; stroke-linecap: butt; stroke-dashoffset: 0; stroke-linejoin: miter; stroke-miterlimit: 4; fill: rgb(93,112,128); fill-rule: nonzero; opacity: 1;" vector-effect="non-scaling-stroke"  transform=" translate(-678.22, -402.49)" d="M 714.92 386.03 C 714.92 386.03 690.7099999999999 437.64 691.63 442.21 C 692.5500000000001 446.78 677.47 483.32 677.47 483.32 C 674.03 484.94 667.71 482.61 661.75 479.52 C 657.255513247045 477.124535496979 652.9138528999513 474.4527445141521 648.75 471.52 L 647.87 470.9 L 647.34 470.52 L 687.08 360.44 L 651.9200000000001 334.65 L 649.32 332.73999999999995 L 633.6 321.13999999999993 L 681.6 329.81999999999994 C 681.6 329.81999999999994 683.27 329.60999999999996 692.1 334.54999999999995 C 696.34 336.91999999999996 702.23 340.46999999999997 710.37 345.80999999999995 C 735.46 362.28 714.92 386.03 714.92 386.03 z" stroke-linecap="round" />
</g>
<g transform="matrix(1 0 0 1 525.58 481.83)"  >
<path style="stroke: none; stroke-width: 1; stroke-dasharray: none; stroke-linecap: butt; stroke-dashoffset: 0; stroke-linejoin: miter; stroke-miterlimit: 4; fill: rgb(0,0,0); fill-rule: nonzero; opacity: 0.1;" vector-effect="non-scaling-stroke"  transform=" translate(-504.5, -327.99)" d="M 260.92 418.41 C 260.92 262.11 387.62 135.41000000000003 543.9200000000001 135.41000000000003 C 632.8648629524434 135.33129372149196 716.6551762073659 177.1375324360544 770.0799999999999 248.24999999999997 C 721.9200000000001 160.73000000000002 628.9200000000001 101.41000000000003 521.9200000000001 101.41000000000003 C 365.62000000000006 101.41000000000003 238.92000000000007 228.11 238.92000000000007 384.41 C 238.82807146253754 445.8116703169606 258.7976666971576 505.5624409363195 295.7900000000001 554.5699999999999 C 272.8490702104523 512.8585405312641 260.85234581969377 466.01386048980544 260.92 418.4100000000001 z" stroke-linecap="round" />
</g>
<g transform="matrix(1 0 0 1 699.3 556.33)"  >
<path style="stroke: none; stroke-width: 1; stroke-dasharray: none; stroke-linecap: butt; stroke-dashoffset: 0; stroke-linejoin: miter; stroke-miterlimit: 4; fill: rgb(0,0,0); fill-rule: nonzero; opacity: 0.03;" vector-effect="non-scaling-stroke"  transform=" translate(-678.22, -402.49)" d="M 714.92 386.03 C 714.92 386.03 690.7099999999999 437.64 691.63 442.21 C 692.5500000000001 446.78 677.47 483.32 677.47 483.32 C 674.03 484.94 667.71 482.61 661.75 479.52 C 657.255513247045 477.124535496979 652.9138528999513 474.4527445141521 648.75 471.52 L 647.87 470.9 L 647.34 470.52 L 687.08 360.44 L 651.9200000000001 334.65 L 649.32 332.73999999999995 L 633.6 321.13999999999993 L 681.6 329.81999999999994 C 681.6 329.81999999999994 683.27 329.60999999999996 692.1 334.54999999999995 C 696.34 336.91999999999996 702.23 340.46999999999997 710.37 345.80999999999995 C 735.46 362.28 714.92 386.03 714.92 386.03 z" stroke-linecap="round" />
</g>
<g transform="matrix(1 0 0 1 688.47 477.74)"  >
<linearGradient id="SVGID_SVGID_13_4" gradientUnits="userSpaceOnUse" gradientTransform="matrix(1 0 0 1 0 0)"  x1="748.44" y1="596.28" x2="748.44" y2="179.26">
<stop offset="0%" style="stop-color:rgb(128,128,128);stop-opacity: 0.25"/>
<stop offset="54%" style="stop-color:rgb(128,128,128);stop-opacity: 0.12"/>
<stop offset="100%" style="stop-color:rgb(128,128,128);stop-opacity: 0.1"/>
</linearGradient>
<path style="stroke: none; stroke-width: 1; stroke-dasharray: none; stroke-linecap: butt; stroke-dashoffset: 0; stroke-linejoin: miter; stroke-miterlimit: 4; fill: url(#SVGID_SVGID_13_4); fill-rule: nonzero; opacity: 1;" vector-effect="non-scaling-stroke"  transform=" translate(-748.48, -387.76)" d="M 864.5 240.09 C 861.14 236.86 832.86 258.09000000000003 832.86 258.09000000000003 C 832.86 258.09000000000003 822.79 259.93 825.19 266.84000000000003 C 827.5900000000001 273.75000000000006 814.6400000000001 312.45000000000005 814.6400000000001 312.45000000000005 L 809.3700000000001 305.08000000000004 C 809.8800000000001 296.43000000000006 807.5000000000001 290.30000000000007 805.1800000000001 286.48 C 804.99 286.17 804.8000000000001 285.87 804.61 285.59000000000003 L 805.53 285.27000000000004 C 805.18 280.55 797.63 273.36 793.62 269.84000000000003 L 793.62 268.32000000000005 C 793.87 262.68000000000006 796.13 256.7300000000001 793.62 251.62000000000006 C 790.78 245.79000000000005 782.47 242.86000000000007 781.77 236.46000000000006 C 781.35 232.64000000000007 783.93 229.19000000000005 785.0699999999999 225.51000000000008 C 787.79 216.71000000000006 782.14 207.73000000000008 776.7399999999999 200.1500000000001 C 774.9109429148277 197.3080641513931 772.685105858342 194.74212188657904 770.1299999999999 192.5300000000001 C 767.6957517039735 190.750537115472 765.022779631497 189.3231565629153 762.1899999999998 188.29000000000008 C 754.2799999999999 185.0900000000001 746.1899999999998 183.48000000000008 738.0299999999999 181.29000000000008 C 730.1999999999998 179.21000000000006 722.9799999999999 178.22000000000008 715.0299999999999 180.83000000000007 C 713.1433970777995 181.33869055579154 711.4207654563556 182.32748110650027 710.0299999999999 183.70000000000007 C 708.1399999999999 185.82000000000008 707.8899999999999 188.84000000000006 706.6499999999999 191.37000000000006 C 704.6499999999999 195.44000000000005 700.3399999999999 197.87000000000006 696.5299999999999 200.48000000000008 C 692.7199999999998 203.0900000000001 688.8999999999999 206.67000000000007 688.8799999999999 211.17000000000007 C 688.8799999999999 217.56000000000006 696.1799999999998 221.58000000000007 698.6199999999999 227.5300000000001 C 700.8999999999999 233.07000000000008 698.6199999999999 239.2400000000001 697.3499999999999 245.0800000000001 C 696.8193382200083 246.96750362587488 696.7677825803382 248.95755131713946 697.1999999999999 250.8700000000001 C 697.7035148712533 252.29529734240538 698.462584478992 253.61689174873592 699.4399999999999 254.7700000000001 C 700.9499999999999 256.7700000000001 702.5699999999999 258.6300000000001 704.18 260.5300000000001 L 703.4399999999999 260.8200000000001 C 690.02 259.4400000000001 681.39 276.48000000000013 681.39 276.48000000000013 C 682.01 276.6100000000001 682.6 276.7600000000001 683.18 276.9300000000001 L 682.6099999999999 277.67000000000013 C 678.5549902648272 282.9364036342037 675.2408244381202 288.73367035442305 672.7599999999999 294.90000000000015 L 661.7599999999999 309.64000000000016 C 661.7599999999999 309.64000000000016 659.3599999999999 272.78000000000014 665.1199999999999 264.4900000000002 C 670.8799999999999 256.2000000000002 659.8499999999999 251.13000000000017 659.8499999999999 251.13000000000017 C 659.8499999999999 251.13000000000017 635.8499999999999 224.41000000000017 632.5199999999999 226.71000000000015 C 629.1899999999998 229.01000000000013 640.6699999999998 258.04000000000013 650.7399999999999 262.65000000000015 C 650.7399999999999 262.65000000000015 651.7399999999999 271.8600000000001 649.7399999999999 277.85000000000014 C 648.5299999999999 281.64000000000016 642.0699999999999 321.6200000000001 642.0699999999999 321.6200000000001 C 642.0699999999999 321.6200000000001 636.3199999999999 355.2500000000001 662.6899999999999 338.6200000000001 C 679.8199999999999 327.84000000000015 690.89 309.28000000000014 696.53 297.6200000000001 Q 697.12 296.3900000000001 697.64 295.2700000000001 C 697.9006484645096 296.50668493569805 698.0777157618894 297.7595195869711 698.17 299.0200000000001 L 699.17 337.55000000000007 C 699.4233794267823 347.0801568985684 697.3429850994152 356.52775622020914 693.11 365.07 L 681.36 388.90000000000003 L 682.67 389.3 L 681.88 390.44 C 674.14 401.83 660.98 427.44 688.07 440.49 L 724.07 445.1 L 722.1500000000001 454.31 C 722.1500000000001 454.31 707.2900000000001 482.41 702.9700000000001 501.76 C 700.2868118748596 513.6094162759807 696.0960046990999 525.0660816024961 690.5000000000001 535.85 L 691.6100000000001 536.44 C 691.3800000000001 536.7 691.1400000000001 536.97 690.9100000000001 537.25 C 688.7270633175582 539.7050815078579 687.2846584873712 542.7285839403652 686.7500000000001 545.97 L 681.8700000000001 552.89 C 681.8700000000001 552.89 679.9500000000002 581.4499999999999 683.7900000000001 588.37 C 685.8900000000001 592.15 692.8600000000001 594.55 698.7900000000001 595.95 C 707.59 598.0400000000001 714.69 588.95 710.0200000000001 581.46 L 709.9600000000002 581.36 L 709.8700000000001 581.36 C 708.8700000000001 576.71 705.8100000000002 562.28 706.8100000000002 556.8000000000001 C 707.0900000000001 555.2400000000001 707.3500000000001 553.69 707.4800000000001 552.11 C 707.7206782012707 550.0337639505576 708.3517629436878 548.0217572180129 709.3400000000001 546.1800000000001 C 709.5000000000001 545.8700000000001 709.6700000000002 545.57 709.8400000000001 545.2700000000001 L 710.3600000000001 545.4900000000001 C 711.9700000000001 546.1800000000002 713.5600000000002 546.8300000000002 715.0700000000002 547.4000000000001 C 712.7300000000001 549.5300000000001 711.0700000000002 553.94 713.0700000000002 563.0100000000001 C 713.0700000000002 563.0100000000001 713.2600000000002 585.7000000000002 714.9900000000001 589.2700000000001 C 716.72 592.84 736.0800000000002 597.5600000000001 739.4400000000002 593.8800000000001 C 742.8000000000002 590.2000000000002 737.2800000000002 577.5200000000001 737.2800000000002 577.5200000000001 L 737.1100000000002 577.6400000000001 C 736.0000000000002 570.2900000000001 734.6300000000002 557.1300000000001 738.0000000000002 551.95 C 739.3600000000002 549.86 740.6800000000002 547.7 741.8600000000002 545.6800000000001 L 742.5900000000003 544.4300000000001 C 748.8500000000003 547.5500000000001 755.4700000000003 549.9000000000001 759.0900000000003 548.2700000000001 C 759.0900000000003 548.2700000000001 774.9100000000003 511.4100000000001 773.9500000000003 506.8100000000001 C 772.9900000000002 502.21000000000015 798.4000000000003 450.1400000000001 798.4000000000003 450.1400000000001 C 798.4000000000003 450.1400000000001 819.9700000000004 426.1400000000001 793.6100000000004 409.6000000000001 C 785.2400000000004 404.3300000000001 779.1400000000003 400.7900000000001 774.7100000000004 398.4000000000001 L 771 379 C 769.0925519355475 368.8294335033941 769.433868840622 358.36465719380647 772 348.34 L 776 333.08 L 776.33 331.78 C 776.33 331.78 786.4000000000001 311.04999999999995 785.9200000000001 301.36999999999995 C 785.8828717973439 300.6180593358453 785.9672895565685 299.86505292356173 786.1700000000001 299.13999999999993 C 786.2800000000001 299.5999999999999 786.4000000000001 300.0799999999999 786.5300000000001 300.5799999999999 C 789.1756265402319 310.64100877383714 792.6611991059326 320.4621614157733 796.95 329.93999999999994 C 804.6 347.19999999999993 815.95 345.8299999999999 822.1700000000001 343.37999999999994 C 824.8745723738114 342.33325127703455 826.8704825837684 339.9952924246932 827.48 337.1599999999999 C 829.72 326.4199999999999 835.87 296.3299999999999 836.26 288.0199999999999 C 836.6086452414487 281.5220010475523 837.4105955261546 275.0562768771115 838.66 268.6699999999999 C 854.4399999999999 259.4399999999999 867.86 243.3199999999999 864.5 240.08999999999992 z" stroke-linecap="round" />
</g>
<g transform="matrix(1 0 0 1 671.87 646.52)"  >
<path style="stroke: none; stroke-width: 1; stroke-dasharray: none; stroke-linecap: butt; stroke-dashoffset: 0; stroke-linejoin: miter; stroke-miterlimit: 4; fill: rgb(248,189,197); fill-rule: nonzero; opacity: 1;" vector-effect="non-scaling-stroke"  transform=" translate(-650.77, -492.69)" d="M 666.03 471.45 C 666.03 471.45 663.92 475.68 661.03 480.76 C 659.9 482.76 658.64 484.90999999999997 657.35 486.98 C 652.78 494.29 657.35 517.58 657.35 517.58 L 647.35 518.95 L 637.35 513.95 L 635.52 497.05000000000007 L 635.52 484.69000000000005 L 646.92 471.94000000000005 L 651.92 466.4200000000001 z" stroke-linecap="round" />
</g>
<g transform="matrix(1 0 0 1 677.55 627.43)"  >
<path style="stroke: none; stroke-width: 1; stroke-dasharray: none; stroke-linecap: butt; stroke-dashoffset: 0; stroke-linejoin: miter; stroke-miterlimit: 4; fill: rgb(0,0,0); fill-rule: nonzero; opacity: 0.1;" vector-effect="non-scaling-stroke"  transform=" translate(-656.46, -473.59)" d="M 666.03 471.45 C 666.03 471.45 663.92 475.68 661.03 480.76 C 656.6150710174289 478.400679939215 652.3472418367588 475.77586480931933 648.25 472.9 L 647.37 472.28 L 646.9 471.94 L 651.9 466.42 z" stroke-linecap="round" />
</g>
<g transform="matrix(1 0 0 1 667.33 659.03)"  >
<path style="stroke: none; stroke-width: 1; stroke-dasharray: none; stroke-linecap: butt; stroke-dashoffset: 0; stroke-linejoin: miter; stroke-miterlimit: 4; fill: rgb(93,62,83); fill-rule: nonzero; opacity: 1;" vector-effect="non-scaling-stroke"  transform=" translate(-646.25, -505.18)" d="M 641.37 480.58 C 641.37 480.58 629.49 478.75 633.61 497.94 C 633.61 497.94 633.79 520.44 635.44 523.94 C 637.0900000000001 527.44 655.5400000000001 532.1600000000001 658.73 528.5100000000001 C 661.92 524.8600000000001 656.6700000000001 512.3000000000001 656.6700000000001 512.3000000000001 C 656.6700000000001 512.3000000000001 643.2 522.1200000000001 639.5400000000001 511.61000000000007 C 635.8800000000001 501.1 641.3700000000001 480.58000000000004 641.3700000000001 480.58000000000004 z" stroke-linecap="round" />
</g>
<g transform="matrix(1 0 0 1 640.75 647.9)"  >
<path style="stroke: none; stroke-width: 1; stroke-dasharray: none; stroke-linecap: butt; stroke-dashoffset: 0; stroke-linejoin: miter; stroke-miterlimit: 4; fill: rgb(248,189,197); fill-rule: nonzero; opacity: 1;" vector-effect="non-scaling-stroke"  transform=" translate(-619.67, -494.06)" d="M 633.14 476.93 C 631.8438777834782 478.16421854859254 630.7891952751912 479.629243769107 630.03 481.25 C 629.0862986968251 483.08563615963163 628.486421654857 485.0784480278645 628.26 487.13 C 628.14 488.69 627.89 490.24 627.63 491.78 C 626.49 498.28999999999996 630.86 517.5799999999999 630.86 517.5799999999999 L 613.5 520.3199999999999 L 607.11 513.4699999999999 L 605.74 498.3999999999999 C 607.4453308146684 493.2329523882096 608.3688647322853 487.84005359920604 608.48 482.3999999999999 C 608.48 478.4699999999999 610.48 474.9599999999999 612.48 472.3999999999999 C 613.8358688351168 470.6918219621321 615.3901218952805 469.1509965741945 617.11 467.80999999999995 C 617.11 467.80999999999995 636.8000000000001 473.72999999999996 633.14 476.92999999999995 z" stroke-linecap="round" />
</g>
<g transform="matrix(1 0 0 1 644.14 628.36)"  >
<path style="stroke: none; stroke-width: 1; stroke-dasharray: none; stroke-linecap: butt; stroke-dashoffset: 0; stroke-linejoin: miter; stroke-miterlimit: 4; fill: rgb(0,0,0); fill-rule: nonzero; opacity: 0.1;" vector-effect="non-scaling-stroke"  transform=" translate(-623.06, -474.52)" d="M 633.14 476.93 C 631.8438777834782 478.16421854859254 630.7891952751912 479.629243769107 630.03 481.25 C 622.92 478.04 615.4499999999999 473.99 612.73 472.49 L 612.52 472.38 C 613.8758688351168 470.6718219621322 615.4301218952804 469.13099657419457 617.15 467.79 C 617.15 467.79 636.8 473.73 633.14 476.93 z" stroke-linecap="round" />
</g>
<g transform="matrix(1 0 0 1 977.07 732.74)"  >
<path style="stroke: none; stroke-width: 1; stroke-dasharray: none; stroke-linecap: butt; stroke-dashoffset: 0; stroke-linejoin: miter; stroke-miterlimit: 4; fill: rgb(151,213,200); fill-rule: nonzero; opacity: 1;" vector-effect="non-scaling-stroke"  transform=" translate(-955.99, -578.9)" d="M 963.32 444.28 C 963.32 444.28 921.48 486.12 945.1 548.1999999999999 C 968.72 610.2799999999999 904.62 713.52 904.62 713.52 C 904.62 713.52 905.3100000000001 713.42 906.62 713.1999999999999 C 992.55 698.03 1035.24 599.76 987.46 526.75 C 969.6500000000001 499.6 955.07 467.76 963.32 444.28 z" stroke-linecap="round" />
</g>
<g transform="matrix(1 0 0 1 664.1 556.76)"  >
<path style="stroke: none; stroke-width: 1; stroke-dasharray: none; stroke-linecap: butt; stroke-dashoffset: 0; stroke-linejoin: miter; stroke-miterlimit: 4; fill: rgb(93,112,128); fill-rule: nonzero; opacity: 1;" vector-effect="non-scaling-stroke"  transform=" translate(-643.03, -402.92)" d="M 689.33 372.33 C 689.33 372.33 677.9200000000001 393.79999999999995 670.6 411.61 C 665.8000000000001 423.31 655.88 451.17 649.6 468.91 L 648.6800000000001 471.53000000000003 C 645.9200000000001 479.38000000000005 644.08 484.69000000000005 644.08 484.69000000000005 C 642.8632638304083 484.6980653201644 641.6524986307179 484.51931725447196 640.49 484.1600000000001 C 639.41 483.87000000000006 638.2 483.4800000000001 636.91 483.00000000000006 L 635.4599999999999 482.45000000000005 C 634.0199999999999 481.89000000000004 632.4599999999999 481.24000000000007 630.9699999999999 480.56000000000006 C 623.7099999999999 477.32000000000005 615.9699999999999 473.1000000000001 613.16 471.56000000000006 L 612.1 470.9700000000001 C 617.4596658389286 460.2317641491005 621.4604833664542 448.86756121407166 624.01 437.1400000000001 C 628.12 417.9600000000001 642.28 390.1400000000001 642.28 390.1400000000001 L 644.11 381.0000000000001 L 609.85 376.4300000000001 C 584.0400000000001 363.53000000000014 596.58 338.10000000000014 603.95 326.8100000000001 C 605.2067232567294 324.85022423586844 606.5652515831304 322.95763071972766 608.0200000000001 321.1400000000001 L 635.4300000000001 327.1400000000001 C 635.4300000000001 327.1400000000001 639.7500000000001 328.5200000000001 649.35 332.7700000000001 L 653.76 334.7700000000001 C 659.14 337.2400000000001 665.76 340.4200000000001 673.76 344.5000000000001 C 700.74 358.1400000000001 689.33 372.3300000000001 689.33 372.3300000000001 z" stroke-linecap="round" />
</g>
<g transform="matrix(1 0 0 1 638.82 659.67)"  >
<path style="stroke: none; stroke-width: 1; stroke-dasharray: none; stroke-linecap: butt; stroke-dashoffset: 0; stroke-linejoin: miter; stroke-miterlimit: 4; fill: rgb(93,62,83); fill-rule: nonzero; opacity: 1;" vector-effect="non-scaling-stroke"  transform=" translate(-617.75, -505.83)" d="M 630.69 516.21 C 632.6888853477408 519.5775185155097 632.4667843055549 523.8166709438605 630.1269413769172 526.9568713602378 C 627.7870984482795 530.0970717766152 623.7885356839572 531.5222868493349 619.99 530.57 C 614.38 529.1800000000001 607.73 526.8000000000001 605.73 523.0500000000001 C 602.08 516.2 603.9 487.88000000000005 603.9 487.88000000000005 L 608.6999999999999 480.80000000000007 C 608.6999999999999 480.80000000000007 606.1899999999999 512.09 612.1299999999999 514.8000000000001 C 618.0699999999998 517.5100000000001 630.6299999999999 516.07 630.6299999999999 516.07 z" stroke-linecap="round" />
</g>
<g transform="matrix(1 0 0 1 682.14 340.68)"  >
<path style="stroke: none; stroke-width: 1; stroke-dasharray: none; stroke-linecap: butt; stroke-dashoffset: 0; stroke-linejoin: miter; stroke-miterlimit: 4; fill: rgb(133,85,92); fill-rule: nonzero; opacity: 1;" vector-effect="non-scaling-stroke"  transform=" translate(-661.06, -186.83)" d="M 635.55 119 C 633.7256265642259 119.50765203570441 632.0690357135991 120.49125285326402 630.75 121.85 C 628.95 123.94999999999999 628.75 126.94999999999999 627.53 129.46 C 625.63 133.46 621.53 135.91 617.89 138.46 C 614.25 141.01000000000002 610.62 144.6 610.6 149.06 C 610.6 155.4 617.6 159.38 619.88 165.27 C 622.05 170.77 619.88 176.88 618.67 182.67000000000002 C 618.1654203894707 184.5446703522335 618.1174133312686 186.5129597385163 618.53 188.41000000000003 C 619.0070713663168 189.81719354563066 619.7317985378057 191.12779829033258 620.67 192.28000000000003 C 625.0799999999999 198.28000000000003 630.56 203.60000000000002 633.51 210.43000000000004 C 635.75 215.62000000000003 636.37 221.35000000000002 636.96 226.98000000000005 C 637.8100000000001 235.08000000000004 638.6600000000001 243.33000000000004 637.12 251.33000000000004 C 636.9701757139177 251.80854728739797 636.9701757139177 252.3214527126021 637.12 252.80000000000004 C 637.3823006247378 253.25887172893934 637.7958792915767 253.61235776897263 638.29 253.80000000000004 C 644.1699961551165 256.6567742923104 650.960894289717 256.9913520681964 657.0932301319144 254.72640808215857 C 663.225565974112 252.46146409612072 668.1686241249631 247.79301511600508 670.78 241.80000000000004 C 672.78 237.27000000000004 673.55 231.80000000000004 677.51 228.86000000000004 C 677.9721469487276 228.47773724830657 678.5279360572958 228.22573349100549 679.12 228.13000000000005 C 680.0537637194664 228.15575896092332 680.9587805447 228.45859151398224 681.72 229.00000000000006 C 686.86 231.78000000000006 693.09 231.86000000000007 698.82 230.72000000000006 C 702.2800000000001 230.03000000000006 705.82 228.80000000000007 708.11 226.10000000000005 C 712.62 220.74000000000004 710.11 212.73000000000005 710.41 205.74000000000007 C 710.65 200.15000000000006 712.8 194.25000000000006 710.41 189.19000000000005 C 707.7099999999999 183.41000000000005 699.78 180.51000000000005 699.12 174.19000000000005 C 698.72 170.41000000000005 701.18 166.98000000000005 702.27 163.34000000000006 C 704.86 154.61000000000007 699.48 145.71000000000006 694.34 138.20000000000005 C 692.6108952371325 135.3985623578616 690.4931317382602 132.8565727844935 688.0500000000001 130.65 C 685.744622455792 128.89444066342082 683.1985045544131 127.47993071821038 680.4900000000001 126.45000000000003 C 672.9600000000002 123.28000000000003 665.2800000000001 121.68000000000004 657.4900000000001 119.52000000000004 C 650.0300000000001 117.39000000000004 643.1600000000001 116.40000000000003 635.5500000000001 119.00000000000004 z" stroke-linecap="round" />
</g>
<g transform="matrix(1 0 0 1 986.96 823.12)"  >
<path style="stroke: none; stroke-width: 1; stroke-dasharray: none; stroke-linecap: butt; stroke-dashoffset: 0; stroke-linejoin: miter; stroke-miterlimit: 4; fill: rgb(151,213,200); fill-rule: nonzero; opacity: 1;" vector-effect="non-scaling-stroke"  transform=" translate(-965.88, -669.28)" d="M 1037.84 613.5 C 1037.84 613.5 990.0999999999999 605.9 985.7499999999999 648.68 C 981.3999999999999 691.4599999999999 893.9199999999998 697.39 893.9199999999998 697.39 L 895.5599999999998 698.48 C 967.7599999999999 745.88 1036.7899999999997 728.6700000000001 1026.3799999999999 665.73 C 1022.5399999999998 642.34 1022.8599999999999 618.84 1037.84 613.5 z" stroke-linecap="round" />
</g>
<g transform="matrix(1 0 0 1 691.82 363.29)"  >
<path style="stroke: none; stroke-width: 1; stroke-dasharray: none; stroke-linecap: butt; stroke-dashoffset: 0; stroke-linejoin: miter; stroke-miterlimit: 4; fill: rgb(248,189,197); fill-rule: nonzero; opacity: 1;" vector-effect="non-scaling-stroke"  transform=" translate(-670.75, -209.45)" d="M 673.8 249.46 L 647.3 249.46 L 647.3 206.52 C 648.0872932953894 202.3960004655597 648.5487186199982 198.21642324989912 648.68 194.02 L 648.68 189.72 C 648.43 184.6 647.37 179.49 644.5899999999999 176.37 C 637.28 168.15 668.3399999999999 169.52 668.3399999999999 169.52 C 669.2931041724158 173.29456719034386 670.5299558595467 176.99175088214605 672.04 180.58 C 674.2902101642587 186.17896887571504 677.283747595105 191.4496128691262 680.9399999999999 196.25 C 684.1568556669495 200.52143945108187 688.27862366359 204.0285278790436 693.01 206.52 C 711.25 215.66000000000003 673.8 249.46 673.8 249.46 z" stroke-linecap="round" />
</g>
<g transform="matrix(1 0 0 1 959.88 732.74)"  >
<path style="stroke: rgb(83,84,97); stroke-width: 1; stroke-dasharray: none; stroke-linecap: butt; stroke-dashoffset: 0; stroke-linejoin: miter; stroke-miterlimit: 10; fill: none; fill-rule: nonzero; opacity: 1;" vector-effect="non-scaling-stroke"  transform=" translate(-938.8, -578.9)" d="M 963.32 444.28 C 963.32 444.28 939.7 495.55999999999995 963.32 537.4 C 986.94 579.24 967.32 696.65 904.61 713.52" stroke-linecap="round" />
</g>
<g transform="matrix(1 0 0 1 678.8 333.6)"  >
<path style="stroke: none; stroke-width: 1; stroke-dasharray: none; stroke-linecap: butt; stroke-dashoffset: 0; stroke-linejoin: miter; stroke-miterlimit: 4; fill: rgb(0,0,0); fill-rule: nonzero; opacity: 0.1;" vector-effect="non-scaling-stroke"  transform=" translate(-657.73, -179.75)" d="M 672.01 180.58 C 666.5262315644435 187.73013208336212 657.5300372023984 191.2500471719363 648.65 189.72000000000003 C 648.4 184.60000000000002 647.34 179.49000000000004 644.56 176.37000000000003 C 637.25 168.15000000000003 668.31 169.52000000000004 668.31 169.52000000000004 C 669.2631041724159 173.29456719034388 670.4999558595467 176.99175088214608 672.01 180.58000000000004 z" stroke-linecap="round" />
</g>
<g transform="matrix(1 0 0 1 977.07 733.44)"  >
<path style="stroke: none; stroke-width: 1; stroke-dasharray: none; stroke-linecap: butt; stroke-dashoffset: 0; stroke-linejoin: miter; stroke-miterlimit: 4; fill: rgb(0,0,0); fill-rule: nonzero; opacity: 0.1;" vector-effect="non-scaling-stroke"  transform=" translate(-955.99, -579.6)" d="M 963.32 444.98 C 963.32 444.98 921.48 486.82000000000005 945.1 548.9 C 968.72 610.9799999999999 904.62 714.21 904.62 714.21 C 904.62 714.21 905.3100000000001 714.11 906.62 713.89 C 992.55 698.72 1035.24 600.45 987.46 527.44 C 969.6500000000001 500.30000000000007 955.07 468.46000000000004 963.32 444.9800000000001 z" stroke-linecap="round" />
</g>
<g transform="matrix(1 0 0 1 673.86 318.35)"  >
<circle style="stroke: none; stroke-width: 1; stroke-dasharray: none; stroke-linecap: butt; stroke-dashoffset: 0; stroke-linejoin: miter; stroke-miterlimit: 4; fill: rgb(248,189,197); fill-rule: nonzero; opacity: 1;" vector-effect="non-scaling-stroke"  cx="0" cy="0" r="24.21" />
</g>
<g transform="matrix(1 0 0 1 688.41 376.81)"  >
<path style="stroke: none; stroke-width: 1; stroke-dasharray: none; stroke-linecap: butt; stroke-dashoffset: 0; stroke-linejoin: miter; stroke-miterlimit: 4; fill: rgb(248,189,197); fill-rule: nonzero; opacity: 1;" vector-effect="non-scaling-stroke"  transform=" translate(-667.33, -222.97)" d="M 753.27 206.07 C 752.0813292821305 212.40505932480892 751.3196140911126 218.81282132644213 750.99 225.25000000000006 C 750.62 233.48 744.76 263.32 742.62 273.97 C 742.0717789609696 276.74367727549304 740.1726786106227 279.0593786908371 737.5600000000001 280.14000000000004 C 731.62 282.57000000000005 720.82 283.93000000000006 713.5600000000001 266.82000000000005 C 709.4666448320428 257.4052146388632 706.1456997545135 247.67313994036363 703.6300000000001 237.72000000000006 C 702.7400112351611 234.3743823545182 702.071891418477 230.9736524875963 701.6300000000001 227.54000000000005 L 717.6300000000001 218.86000000000004 C 719.135974617493 220.2689552836168 720.4114933732417 221.90553358133658 721.4100000000001 223.71000000000004 C 723.6200000000001 227.50000000000003 725.8900000000001 233.58000000000004 725.4100000000001 242.15000000000003 L 730.4100000000001 249.46000000000004 C 730.4100000000001 249.46000000000004 742.7400000000001 211.09000000000003 740.4100000000001 204.24000000000004 C 738.08 197.39000000000004 747.72 195.56000000000003 747.72 195.56000000000003 C 747.72 195.56000000000003 774.6700000000001 174.56000000000003 777.87 177.75000000000003 C 781.0699999999999 180.94000000000003 768.34 196.93000000000004 753.27 206.07000000000002 z M 622.18 224.34 C 620.931636939821 227.91292648461325 619.4963233428504 231.41776201209981 617.88 234.84 C 612.5 246.41 601.96 264.84000000000003 585.64 275.5 C 560.52 291.94 566 258.6 566 258.6 C 566 258.6 572.15 218.96000000000004 573.31 215.21000000000004 C 575.14 209.27000000000004 574.2199999999999 200.14000000000004 574.2199999999999 200.14000000000004 C 564.6299999999999 195.57000000000005 553.67 166.80000000000004 556.8599999999999 164.51000000000005 C 560.0499999999998 162.22000000000006 582.8599999999999 188.72000000000006 582.8599999999999 188.72000000000006 C 582.8599999999999 188.72000000000006 593.3699999999999 193.72000000000006 587.8599999999999 201.97000000000006 C 582.3499999999999 210.22000000000006 584.6599999999999 246.73000000000005 584.6599999999999 246.73000000000005 L 595.2299999999999 232.14000000000004 C 597.5813562588161 226.0520189237802 600.7395773506635 220.3073526566072 604.6199999999999 215.0600000000001 C 606.6199999999999 212.33000000000007 608.0199999999999 210.68000000000006 608.0199999999999 210.68000000000006 z" stroke-linecap="round" />
</g>
<g transform="matrix(1 0 0 1 683.76 419.42)"  >
<path style="stroke: none; stroke-width: 1; stroke-dasharray: none; stroke-linecap: butt; stroke-dashoffset: 0; stroke-linejoin: miter; stroke-miterlimit: 4; fill: rgb(0,0,0); fill-rule: nonzero; opacity: 0.1;" vector-effect="non-scaling-stroke"  transform=" translate(-662.68, -265.58)" d="M 721.42 223.71 C 718.06 224.95000000000002 705.05 230.20000000000002 703.61 237.71 C 702.720011235161 234.36438235451814 702.0518914184769 230.96365248759625 701.61 227.53 L 717.61 218.85 C 719.127471482193 220.25974689342888 720.4132494482706 221.89987311787436 721.42 223.71 z M 622.18 224.34 C 620.931636939821 227.91292648461325 619.4963233428504 231.41776201209981 617.88 234.84 C 617.26 230.32 614.71 218.76 604.62 215.03 C 606.62 212.3 608.02 210.65 608.02 210.65 z M 673.8 249.46 L 647.3 249.46 L 647.3 206.52 C 648.0872932953894 202.3960004655597 648.5487186199982 198.21642324989912 648.68 194.02 C 654.13 199.28 652.78 207.43 652.78 207.43 L 666.9399999999999 239.43 L 673.8 211.14000000000001 L 671.52 207.49 L 680.92 196.31 C 684.1368556669495 200.58143945108188 688.25862366359 204.0885278790436 692.99 206.58 C 711.25 215.66000000000003 673.8 249.46 673.8 249.46 z M 692.52 337.14 C 692.52 337.14 671.76 335.49 653.75 334.71 L 651.94 334.63 C 649.3800000000001 334.53 646.94 334.45 644.5500000000001 334.39 C 627.07 333.96999999999997 607.3000000000001 327.86 603.94 326.78999999999996 C 605.200553381432 324.83681404129544 606.5624140565254 322.95090403779585 608.0200000000001 321.14 L 635.4300000000001 327.14 C 635.4300000000001 327.14 639.7500000000001 328.52 649.35 332.77 L 633.6 321.14 L 681.6 329.82 C 681.6 329.82 683.27 329.61 692.1 334.55 z" stroke-linecap="round" />
</g>
<g transform="matrix(1 0 0 1 986.98 815.13)"  >
<path style="stroke: rgb(83,84,97); stroke-width: 1; stroke-dasharray: none; stroke-linecap: butt; stroke-dashoffset: 0; stroke-linejoin: miter; stroke-miterlimit: 10; fill: none; fill-rule: nonzero; opacity: 1;" vector-effect="non-scaling-stroke"  transform=" translate(-965.9, -661.29)" d="M 1037.84 613.5 C 1037.84 613.5 1000.78 621.63 1003.8399999999999 655.33 C 1006.8999999999999 689.0300000000001 948.8399999999999 729.4200000000001 893.9599999999999 697.4000000000001" stroke-linecap="round" />
</g>
<g transform="matrix(1 0 0 1 683.68 418.73)"  >
<path style="stroke: none; stroke-width: 1; stroke-dasharray: none; stroke-linecap: butt; stroke-dashoffset: 0; stroke-linejoin: miter; stroke-miterlimit: 4; fill: rgb(237,103,123); fill-rule: nonzero; opacity: 1;" vector-effect="non-scaling-stroke"  transform=" translate(-662.6, -264.88)" d="M 673.8 212.92 L 671.52 209.26999999999998 L 681.66 197.14 C 681.66 197.14 702.5699999999999 207.39 708.05 205.14 C 708.05 205.14 721.3 216.14 721.75 222.5 C 721.75 222.5 702.57 228.89 703.02 238.5 C 703.4699999999999 248.11 693.92 268.64 693.92 268.64 L 689.92 285.06 C 687.4585289948018 295.0110854009861 687.1178192088084 305.36866289518525 688.92 315.4599999999999 L 692.5699999999999 335.78999999999996 C 692.5699999999999 335.78999999999996 663.79 333.51 644.5699999999999 333.04999999999995 C 625.3499999999999 332.5899999999999 603.4599999999999 325.28999999999996 603.4599999999999 325.28999999999996 L 614.67 301.7 C 618.71236295601 293.18679060447164 620.6925039143158 283.8410734171736 620.4499999999999 274.41999999999996 L 619.4499999999999 236.22999999999996 C 619.4499999999999 236.22999999999996 618.54 217.04999999999995 603.4499999999999 213.84999999999997 C 603.4499999999999 213.84999999999997 611.67 196.94999999999996 624.4499999999999 198.31999999999996 C 624.4499999999999 198.31999999999996 643.0699999999999 190.54999999999995 648.5999999999999 195.79999999999995 C 654.1299999999999 201.04999999999995 652.7699999999999 209.27999999999994 652.7699999999999 209.27999999999994 L 666.9299999999998 241.27999999999994 z" stroke-linecap="round" />
</g>
<g transform="matrix(1 0 0 1 677.36 302.72)"  >
<path style="stroke: none; stroke-width: 1; stroke-dasharray: none; stroke-linecap: butt; stroke-dashoffset: 0; stroke-linejoin: miter; stroke-miterlimit: 4; fill: rgb(0,0,0); fill-rule: nonzero; opacity: 0.1;" vector-effect="non-scaling-stroke"  transform=" translate(-656.29, -148.88)" d="M 635.31 159.52 C 638.9799999999999 159.52 641.8599999999999 155.63000000000002 645.53 155.83 C 647.43 155.93 649.06 157.14000000000001 650.63 158.23000000000002 C 656.5625330127107 162.33813172154706 663.1641794784404 165.38348375596874 670.14 167.23000000000002 C 672.85 167.95000000000002 675.72 168.49 678.4399999999999 167.83 C 681.1599999999999 167.17000000000002 683.7099999999999 165.03 684.02 162.24 C 684.0961412648143 161.0103485159541 683.9331330227951 159.77759868568435 683.54 158.61 C 680.4608024850305 147.88235560284713 673.4941171086828 138.68732920284668 664 132.82 C 660.2 130.48999999999998 655.56 128.70999999999998 651.35 130.17 C 647.5500000000001 131.48 645.1 135.04 642.35 137.97 C 640.2775066254835 140.16390124438567 637.9237314189447 142.07382169769141 635.35 143.65 C 633.35 144.86 630.35 145.65 629.2 147.87 C 627.0300000000001 152.01 630.44 159.48000000000002 635.3100000000001 159.52 z" stroke-linecap="round" />
</g>
<g transform="matrix(1 0 0 1 677.36 301.81)"  >
<path style="stroke: none; stroke-width: 1; stroke-dasharray: none; stroke-linecap: butt; stroke-dashoffset: 0; stroke-linejoin: miter; stroke-miterlimit: 4; fill: rgb(133,85,92); fill-rule: nonzero; opacity: 1;" vector-effect="non-scaling-stroke"  transform=" translate(-656.29, -147.97)" d="M 635.31 158.61 C 638.9799999999999 158.61 641.8599999999999 154.72000000000003 645.53 154.92000000000002 C 647.43 155.02 649.06 156.23000000000002 650.63 157.32000000000002 C 656.5625330127107 161.42813172154706 663.1641794784404 164.47348375596874 670.14 166.32000000000002 C 672.85 167.04000000000002 675.72 167.58 678.4399999999999 166.92000000000002 C 681.1599999999999 166.26000000000002 683.7099999999999 164.12 684.02 161.33 C 684.0961412648143 160.1003485159541 683.9331330227951 158.86759868568436 683.54 157.70000000000002 C 680.4608024850305 146.97235560284713 673.4941171086828 137.7773292028467 664 131.91 C 660.2 129.57999999999998 655.56 127.8 651.35 129.26 C 647.5500000000001 130.57 645.1 134.13 642.35 137.06 C 640.2775066254835 139.25390124438567 637.9237314189447 141.16382169769142 635.35 142.74 C 633.35 143.95000000000002 630.35 144.74 629.2 146.96 C 627.0300000000001 151.14000000000001 630.44 158.56 635.3100000000001 158.61 z" stroke-linecap="round" />
</g>
<g transform="matrix(1 0 0 1 678.44 412.54)"  >
<path style="stroke: none; stroke-width: 1; stroke-dasharray: none; stroke-linecap: butt; stroke-dashoffset: 0; stroke-linejoin: miter; stroke-miterlimit: 4; fill: rgb(0,0,0); fill-rule: nonzero; opacity: 0.05;" vector-effect="non-scaling-stroke"  transform=" translate(-657.36, -258.7)" d="M 624.24 262.93 C 624.24 262.93 646.62 271.15000000000003 661.24 264.76 L 668.55 265.21999999999997 C 668.55 265.21999999999997 680.6999999999999 273.73999999999995 693.55 269.92999999999995 M 730.21 249.23 C 730.21 249.23 726.5600000000001 257.90999999999997 728.38 260.65 M 584.5 246.49 C 584.5 246.49 586.33 255.17000000000002 584.5 257.91" stroke-linecap="round" />
</g>
<g transform="matrix(1 0 0 1 943.1 853.19)"  >
<path style="stroke: none; stroke-width: 1; stroke-dasharray: none; stroke-linecap: butt; stroke-dashoffset: 0; stroke-linejoin: miter; stroke-miterlimit: 4; fill: rgb(168,168,168); fill-rule: nonzero; opacity: 1;" vector-effect="non-scaling-stroke"  transform=" translate(-922.03, -699.35)" d="M 995.84 698.95 C 995.84 698.95 958.24 691.4300000000001 948.21 681.4000000000001 C 938.1800000000001 671.3700000000001 893.0600000000001 653.83 888.0500000000001 666.4000000000001 C 883.0400000000001 678.9700000000001 820.3700000000001 721.5500000000001 862.98 729.07 C 905.5899999999999 736.59 963.25 739.07 975.78 734.07 C 988.31 729.07 995.8399999999999 698.95 995.8399999999999 698.95 z" stroke-linecap="round" />
</g>
<g transform="matrix(1 0 0 1 943.1 871.5)"  >
<path style="stroke: none; stroke-width: 1; stroke-dasharray: none; stroke-linecap: butt; stroke-dashoffset: 0; stroke-linejoin: miter; stroke-miterlimit: 4; fill: rgb(0,0,0); fill-rule: nonzero; opacity: 0.2;" vector-effect="non-scaling-stroke"  transform=" translate(-922.03, -717.66)" d="M 862.98 724.38 C 905.6 731.9 963.25 734.38 975.78 729.38 C 985.3299999999999 725.56 991.9599999999999 707.22 994.5799999999999 698.68 L 995.8299999999999 698.9399999999999 C 995.8299999999999 698.9399999999999 988.31 729.02 975.78 734.03 C 963.25 739.04 905.5899999999999 736.54 862.98 729.03 C 850.6800000000001 726.86 847.16 721.76 848.49 715.31 C 849.53 719.52 853.82 722.76 862.98 724.38 z" stroke-linecap="round" />
</g>
<g transform="matrix(NaN NaN NaN NaN 0 0)"  >
<g style=""   >
</g>
</g>
<g transform="matrix(NaN NaN NaN NaN 0 0)"  >
<g style=""   >
</g>
</g>
<g transform="matrix(NaN NaN NaN NaN 0 0)"  >
<g style=""   >
</g>
</g>
<g transform="matrix(NaN NaN NaN NaN 0 0)"  >
<g style=""   >
</g>
</g>
<g transform="matrix(NaN NaN NaN NaN 0 0)"  >
<g style=""   >
</g>
</g>
</svg>