<?xml version="1.0" encoding="UTF-8" standalone="no" ?>
<!DOCTYPE svg PUBLIC "-//W3C//DTD SVG 1.1//EN" "http://www.w3.org/Graphics/SVG/1.1/DTD/svg11.dtd">
<svg xmlns="http://www.w3.org/2000/svg" xmlns:xlink="http://www.w3.org/1999/xlink" version="1.1" width="1080" height="1080" viewBox="0 0 1080 1080" xml:space="preserve">
<desc>Created with Fabric.js 5.2.4</desc>
<defs>
</defs>
<g transform="matrix(1 0 0 1 540 540)" id="f5b3ca4b-53c6-4440-8497-c699a826d165"  >
<rect style="stroke: none; stroke-width: 1; stroke-dasharray: none; stroke-linecap: butt; stroke-dashoffset: 0; stroke-linejoin: miter; stroke-miterlimit: 4; fill: rgb(255,255,255); fill-rule: nonzero; opacity: 1; visibility: hidden;" vector-effect="non-scaling-stroke"  x="-540" y="-540" rx="0" ry="0" width="1080" height="1080" />
</g>
<g transform="matrix(1 0 0 1 540 540)" id="dba4b349-33a7-4279-b525-ba44800927ee"  >
</g>
<g transform="matrix(1 0 0 1 540 540)"  >
<rect style="stroke: none; stroke-width: 1; stroke-dasharray: none; stroke-linecap: butt; stroke-dashoffset: 0; stroke-linejoin: miter; stroke-miterlimit: 4; fill: rgb(255,255,255); fill-rule: nonzero; opacity: 1; visibility: hidden;" vector-effect="non-scaling-stroke"  x="-540" y="-540" rx="0" ry="0" width="1080" height="1080" />
</g>
<g transform="matrix(1 0 0 1 288.35 510.14)"  >
<path style="stroke: none; stroke-width: 1; stroke-dasharray: none; stroke-linecap: butt; stroke-dashoffset: 0; stroke-linejoin: miter; stroke-miterlimit: 4; fill: rgb(255,184,184); fill-rule: nonzero; opacity: 1;" vector-effect="non-scaling-stroke"  transform=" translate(-128.54, -241.29)" d="M 145.9 282.4 L 136.20000000000002 179.29999999999998 L 107.20000000000002 180.29999999999998 L 130.20000000000002 282.09999999999997 C 125.10000000000002 286.4 124.50000000000001 293.9 128.70000000000002 298.99999999999994 C 133.00000000000003 304.09999999999997 140.50000000000003 304.69999999999993 145.60000000000002 300.49999999999994 C 150.70000000000002 296.29999999999995 151.3 288.69999999999993 147.10000000000002 283.59999999999997 L 145.90000000000003 282.4 z" stroke-linecap="round" />
</g>
<g transform="matrix(1 0 0 1 845.14 753.05)"  >
<path style="stroke: none; stroke-width: 1; stroke-dasharray: none; stroke-linecap: butt; stroke-dashoffset: 0; stroke-linejoin: miter; stroke-miterlimit: 4; fill: rgb(240,240,240); fill-rule: nonzero; opacity: 1;" vector-effect="non-scaling-stroke"  transform=" translate(-685.33, -484.2)" d="M 697.2 512.2 C 696.9000000000001 522.2 695.3000000000001 532.1 692.2 541.6 C 692.1 541.8000000000001 692.1 542 692 542.3000000000001 L 673.5 542.3000000000001 C 673.5 542.1 673.5 541.9000000000001 673.6 541.6 C 674.8000000000001 527.4 682 440.90000000000003 673.4 426.1 C 674.1999999999999 427.3 698.6999999999999 467 697.1999999999999 512.2 z" stroke-linecap="round" />
</g>
<g transform="matrix(1 0 0 1 854.21 744.85)"  >
<path style="stroke: none; stroke-width: 1; stroke-dasharray: none; stroke-linecap: butt; stroke-dashoffset: 0; stroke-linejoin: miter; stroke-miterlimit: 4; fill: rgb(240,240,240); fill-rule: nonzero; opacity: 1;" vector-effect="non-scaling-stroke"  transform=" translate(-694.4, -476)" d="M 694.3 540.9 C 694 541.4 693.5999999999999 541.8 693.3 542.3 L 664.1999999999999 542.3 C 664.4 541.9 664.6999999999999 541.4 664.9999999999999 540.9 C 669.7999999999998 532.1999999999999 683.9999999999999 506.29999999999995 697.1999999999999 479.4 C 711.4 450.5 724.4 420.5 723.3 409.7 C 723.5999999999999 412.09999999999997 733.4 486.7 694.3 540.9 z" stroke-linecap="round" />
</g>
<g transform="matrix(1 0 0 1 232.86 724.25)"  >
<path style="stroke: none; stroke-width: 1; stroke-dasharray: none; stroke-linecap: butt; stroke-dashoffset: 0; stroke-linejoin: miter; stroke-miterlimit: 4; fill: rgb(240,240,240); fill-rule: nonzero; opacity: 1;" vector-effect="non-scaling-stroke"  transform=" translate(-73.05, -455.4)" d="M 55.4 497.1 C 55.8 512 58.3 526.7 62.8 540.9 C 62.9 541.1999999999999 63 541.6 63.099999999999994 541.9 L 90.69999999999999 541.9 C 90.69999999999999 541.6 90.6 541.3 90.6 540.9 C 88.8 519.6999999999999 78.1 390.9 90.8 368.9 C 89.7 370.59999999999997 53.199999999999996 429.79999999999995 55.4 497.09999999999997 z" stroke-linecap="round" />
</g>
<g transform="matrix(1 0 0 1 217.1 763.4)"  >
<path style="stroke: none; stroke-width: 1; stroke-dasharray: none; stroke-linecap: butt; stroke-dashoffset: 0; stroke-linejoin: miter; stroke-miterlimit: 4; fill: rgb(240,240,240); fill-rule: nonzero; opacity: 1;" vector-effect="non-scaling-stroke"  transform=" translate(-57.29, -494.55)" d="M 57.4 540.8 C 57.6 541.0999999999999 57.9 541.5 58.1 541.8 L 78.8 541.8 C 78.6 541.5 78.5 541.1999999999999 78.3 540.8 C 74.89999999999999 534.5999999999999 64.7 516.1999999999999 55.3 496.99999999999994 C 45.199999999999996 476.3999999999999 35.9 455.09999999999997 36.699999999999996 447.29999999999995 C 36.49999999999999 449.09999999999997 29.499999999999996 502.29999999999995 57.39999999999999 540.8 z" stroke-linecap="round" />
</g>
<g transform="matrix(1 0 0 1 671.26 662)"  >
<path style="stroke: none; stroke-width: 1; stroke-dasharray: none; stroke-linecap: butt; stroke-dashoffset: 0; stroke-linejoin: miter; stroke-miterlimit: 4; fill: rgb(63,61,86); fill-rule: nonzero; opacity: 1;" vector-effect="non-scaling-stroke"  transform=" translate(-511.45, -393.15)" d="M 655.6 434.2 L 367.3 434.2 C 364.40000000000003 434.2 362 431.8 362 428.9 L 362 357.4 C 362 354.5 364.4 352.09999999999997 367.3 352.09999999999997 L 655.6 352.09999999999997 C 658.5 352.09999999999997 660.9 354.49999999999994 660.9 357.4 L 660.9 428.9 C 660.9 431.79999999999995 658.5 434.2 655.6 434.2 z M 367.3 354.1 C 365.5 354.1 364.1 355.5 364.1 357.3 L 364.1 428.8 C 364.1 430.6 365.5 432 367.3 432 L 655.6 432 C 657.4 432 658.8000000000001 430.6 658.8000000000001 428.8 L 658.8000000000001 357.3 C 658.8000000000001 355.5 657.4000000000001 354.1 655.6 354.1 L 367.3 354.1 z" stroke-linecap="round" />
</g>
<g transform="matrix(1 0 0 1 499.91 767.55)"  >
<circle style="stroke: none; stroke-width: 1; stroke-dasharray: none; stroke-linecap: butt; stroke-dashoffset: 0; stroke-linejoin: miter; stroke-miterlimit: 4; fill: rgb(230,230,230); fill-rule: nonzero; opacity: 1;" vector-effect="non-scaling-stroke"  cx="0" cy="0" r="21.7" />
</g>
<g transform="matrix(1 0 0 1 635.56 757.45)"  >
<path style="stroke: none; stroke-width: 1; stroke-dasharray: none; stroke-linecap: butt; stroke-dashoffset: 0; stroke-linejoin: miter; stroke-miterlimit: 4; fill: rgb(230,230,230); fill-rule: nonzero; opacity: 1;" vector-effect="non-scaling-stroke"  transform=" translate(-475.75, -488.6)" d="M 390.3 485 C 388.3 485 386.7 486.6 386.7 488.6 C 386.7 490.6 388.3 492.20000000000005 390.3 492.20000000000005 L 561.2 492.20000000000005 C 563.2 492.20000000000005 564.8000000000001 490.6 564.8000000000001 488.6 C 564.8000000000001 486.6 563.2 485 561.2 485 L 390.3 485 z" stroke-linecap="round" />
</g>
<g transform="matrix(1 0 0 1 586.86 779.15)"  >
<path style="stroke: none; stroke-width: 1; stroke-dasharray: none; stroke-linecap: butt; stroke-dashoffset: 0; stroke-linejoin: miter; stroke-miterlimit: 4; fill: rgb(230,230,230); fill-rule: nonzero; opacity: 1;" vector-effect="non-scaling-stroke"  transform=" translate(-427.05, -510.3)" d="M 390.3 506.7 C 388.3 506.7 386.7 508.3 386.7 510.3 C 386.7 512.3 388.3 513.9 390.3 513.9 L 463.8 513.9 C 465.8 513.9 467.40000000000003 512.3 467.40000000000003 510.29999999999995 C 467.40000000000003 508.29999999999995 465.8 506.69999999999993 463.8 506.69999999999993 L 390.3 506.69999999999993 z" stroke-linecap="round" />
</g>
<g transform="matrix(1 0 0 1 571.91 661.55)"  >
<circle style="stroke: none; stroke-width: 1; stroke-dasharray: none; stroke-linecap: butt; stroke-dashoffset: 0; stroke-linejoin: miter; stroke-miterlimit: 4; fill: rgb(230,230,230); fill-rule: nonzero; opacity: 1;" vector-effect="non-scaling-stroke"  cx="0" cy="0" r="21.7" />
</g>
<g transform="matrix(1 0 0 1 707.56 651.45)"  >
<path style="stroke: none; stroke-width: 1; stroke-dasharray: none; stroke-linecap: butt; stroke-dashoffset: 0; stroke-linejoin: miter; stroke-miterlimit: 4; fill: rgb(230,230,230); fill-rule: nonzero; opacity: 1;" vector-effect="non-scaling-stroke"  transform=" translate(-547.75, -382.6)" d="M 462.3 379 C 460.3 379 458.7 380.6 458.7 382.6 C 458.7 384.6 460.3 386.20000000000005 462.3 386.20000000000005 L 633.2 386.20000000000005 C 635.2 386.20000000000005 636.8000000000001 384.6 636.8000000000001 382.6 C 636.8000000000001 380.6 635.2 379 633.2 379 L 462.3 379 z" stroke-linecap="round" />
</g>
<g transform="matrix(1 0 0 1 658.86 673.15)"  >
<path style="stroke: none; stroke-width: 1; stroke-dasharray: none; stroke-linecap: butt; stroke-dashoffset: 0; stroke-linejoin: miter; stroke-miterlimit: 4; fill: rgb(230,230,230); fill-rule: nonzero; opacity: 1;" vector-effect="non-scaling-stroke"  transform=" translate(-499.05, -404.3)" d="M 462.3 400.7 C 460.3 400.7 458.7 402.3 458.7 404.3 C 458.7 406.3 460.3 407.90000000000003 462.3 407.90000000000003 L 535.8 407.90000000000003 C 537.8 407.90000000000003 539.4 406.3 539.4 404.3 C 539.4 402.3 537.8 400.7 535.8 400.7 L 462.29999999999995 400.7 z" stroke-linecap="round" />
</g>
<g transform="matrix(1 0 0 1 615.26 397.45)"  >
<path style="stroke: none; stroke-width: 1; stroke-dasharray: none; stroke-linecap: butt; stroke-dashoffset: 0; stroke-linejoin: miter; stroke-miterlimit: 4; fill: rgb(63,61,86); fill-rule: nonzero; opacity: 1;" vector-effect="non-scaling-stroke"  transform=" translate(-455.45, -128.6)" d="M 599.6 257.2 L 311.3 257.2 C 308.40000000000003 257.2 306 254.79999999999998 306 251.89999999999998 L 306 5.3 C 306 2.4 308.4 0 311.3 0 L 599.6 0 C 602.5 0 604.9 2.4 604.9 5.3 L 604.9 251.8 C 604.9 254.8 602.5 257.2 599.6 257.2 z M 311.3 2.1 C 309.5 2.1 308.1 3.5 308.1 5.300000000000001 L 308.1 251.8 C 308.1 253.60000000000002 309.5 255 311.3 255 L 599.6 255 C 601.4 255 602.8000000000001 253.6 602.8000000000001 251.8 L 602.8000000000001 5.3 C 602.8000000000001 3.5 601.4000000000001 2.0999999999999996 599.6 2.0999999999999996 L 311.3 2.0999999999999996 z" stroke-linecap="round" />
</g>
<g transform="matrix(1 0 0 1 515.91 312.15)"  >
<circle style="stroke: none; stroke-width: 1; stroke-dasharray: none; stroke-linecap: butt; stroke-dashoffset: 0; stroke-linejoin: miter; stroke-miterlimit: 4; fill: rgb(151,213,200); fill-rule: nonzero; opacity: 1;" vector-effect="non-scaling-stroke"  cx="0" cy="0" r="21.7" />
</g>
<g transform="matrix(1 0 0 1 651.56 301.35)"  >
<path style="stroke: none; stroke-width: 1; stroke-dasharray: none; stroke-linecap: butt; stroke-dashoffset: 0; stroke-linejoin: miter; stroke-miterlimit: 4; fill: rgb(204,204,204); fill-rule: nonzero; opacity: 1;" vector-effect="non-scaling-stroke"  transform=" translate(-491.75, -32.5)" d="M 406.3 28.9 C 404.3 28.9 402.7 30.5 402.7 32.5 C 402.7 34.5 404.3 36.1 406.3 36.1 L 577.2 36.1 C 579.2 36.1 580.8000000000001 34.5 580.8000000000001 32.5 C 580.8000000000001 30.5 579.2 28.9 577.2 28.9 L 406.3 28.9 z" stroke-linecap="round" />
</g>
<g transform="matrix(1 0 0 1 602.86 323.05)"  >
<path style="stroke: none; stroke-width: 1; stroke-dasharray: none; stroke-linecap: butt; stroke-dashoffset: 0; stroke-linejoin: miter; stroke-miterlimit: 4; fill: rgb(204,204,204); fill-rule: nonzero; opacity: 1;" vector-effect="non-scaling-stroke"  transform=" translate(-443.05, -54.2)" d="M 406.3 50.6 C 404.3 50.6 402.7 52.2 402.7 54.2 C 402.7 56.2 404.3 57.800000000000004 406.3 57.800000000000004 L 479.8 57.800000000000004 C 481.8 57.800000000000004 483.40000000000003 56.2 483.40000000000003 54.2 C 483.40000000000003 52.2 481.8 50.6 479.8 50.6 L 406.3 50.6 z" stroke-linecap="round" />
</g>
<g transform="matrix(1 0 0 1 347.76 679.15)"  >
<path style="stroke: none; stroke-width: 1; stroke-dasharray: none; stroke-linecap: butt; stroke-dashoffset: 0; stroke-linejoin: miter; stroke-miterlimit: 4; fill: rgb(47,46,65); fill-rule: nonzero; opacity: 1;" vector-effect="non-scaling-stroke"  transform=" translate(-187.95, -410.3)" d="M 233.2 521.3 L 211.2 521.3 L 198.2 338.29999999999995 L 197.7 384.79999999999995 L 149.7 512.8 L 130.7 497.79999999999995 L 162.2 370.29999999999995 L 147.2 299.29999999999995 L 245.2 299.29999999999995 L 233.2 521.3 z" stroke-linecap="round" />
</g>
<g transform="matrix(1 0 0 1 358.01 316.15)"  >
<circle style="stroke: none; stroke-width: 1; stroke-dasharray: none; stroke-linecap: butt; stroke-dashoffset: 0; stroke-linejoin: miter; stroke-miterlimit: 4; fill: rgb(255,184,184); fill-rule: nonzero; opacity: 1;" vector-effect="non-scaling-stroke"  cx="0" cy="0" r="26" />
</g>
<g transform="matrix(1 0 0 1 345.76 467.15)"  >
<path style="stroke: none; stroke-width: 1; stroke-dasharray: none; stroke-linecap: butt; stroke-dashoffset: 0; stroke-linejoin: miter; stroke-miterlimit: 4; fill: rgb(151,213,200); fill-rule: nonzero; opacity: 1;" vector-effect="non-scaling-stroke"  transform=" translate(-185.95, -198.3)" d="M 248.2 313.3 C 205.7 302.40000000000003 165.89999999999998 295.1 141.2 308.3 C 145.5 262.90000000000003 140.5 204.9 125.69999999999999 144.3 C 120.89999999999999 124.60000000000001 124.19999999999999 106.9 141.7 96.80000000000001 L 165.2 83.30000000000001 L 201.2 84.30000000000001 L 220 94.7 C 238.9 104.10000000000001 249.2 124.9 245.3 145.7 C 235.10000000000002 198.79999999999998 240.60000000000002 256.1 248.20000000000002 313.29999999999995 z" stroke-linecap="round" />
</g>
<g transform="matrix(1 0 0 1 287.51 413.65)"  >
<path style="stroke: none; stroke-width: 1; stroke-dasharray: none; stroke-linecap: butt; stroke-dashoffset: 0; stroke-linejoin: miter; stroke-miterlimit: 4; fill: rgb(151,213,200); fill-rule: nonzero; opacity: 1;" vector-effect="non-scaling-stroke"  transform=" translate(-127.7, -144.8)" d="M 151.2 186.3 L 104.19999999999999 183.3 C 107.89999999999999 137.10000000000002 118.29999999999998 111.80000000000001 134.2 103.30000000000001 L 151.2 123.30000000000001 L 151.2 186.3 z" stroke-linecap="round" />
</g>
<g transform="matrix(1 0 0 1 683.76 425.5)"  >
<path style="stroke: none; stroke-width: 1; stroke-dasharray: none; stroke-linecap: butt; stroke-dashoffset: 0; stroke-linejoin: miter; stroke-miterlimit: 4; fill: rgb(151,213,200); fill-rule: nonzero; opacity: 1;" vector-effect="non-scaling-stroke"  transform=" translate(-523.95, -156.65)" d="M 668.1 225.2 L 379.8 225.2 C 376.90000000000003 225.2 374.5 222.79999999999998 374.5 219.89999999999998 L 374.5 93.4 C 374.5 90.5 376.9 88.10000000000001 379.8 88.10000000000001 L 668.1 88.10000000000001 C 671 88.10000000000001 673.4 90.50000000000001 673.4 93.4 L 673.4 219.9 C 673.4 222.8 671 225.20000000000002 668.1 225.20000000000002 z" stroke-linecap="round" />
</g>
<g transform="matrix(1 0 0 1 683.76 404.55)"  >
<path style="stroke: none; stroke-width: 1; stroke-dasharray: none; stroke-linecap: butt; stroke-dashoffset: 0; stroke-linejoin: miter; stroke-miterlimit: 4; fill: rgb(255,255,255); fill-rule: nonzero; opacity: 1;" vector-effect="non-scaling-stroke"  transform=" translate(-523.95, -135.7)" d="M 438.5 132.1 C 436.5 132.1 434.9 133.7 434.9 135.7 C 434.9 137.7 436.5 139.29999999999998 438.5 139.29999999999998 L 609.4 139.29999999999998 C 611.4 139.29999999999998 613 137.7 613 135.7 C 613 133.7 611.4 132.1 609.4 132.1 L 438.5 132.1 z" stroke-linecap="round" />
</g>
<g transform="matrix(1 0 0 1 683.76 425.55)"  >
<path style="stroke: none; stroke-width: 1; stroke-dasharray: none; stroke-linecap: butt; stroke-dashoffset: 0; stroke-linejoin: miter; stroke-miterlimit: 4; fill: rgb(255,255,255); fill-rule: nonzero; opacity: 1;" vector-effect="non-scaling-stroke"  transform=" translate(-523.95, -156.7)" d="M 438.5 153.1 C 436.5 153.1 434.9 154.7 434.9 156.7 C 434.9 158.7 436.5 160.29999999999998 438.5 160.29999999999998 L 609.4 160.29999999999998 C 611.4 160.29999999999998 613 158.7 613 156.7 C 613 154.7 611.4 153.1 609.4 153.1 L 438.5 153.1 z" stroke-linecap="round" />
</g>
<g transform="matrix(1 0 0 1 635.06 446.35)"  >
<path style="stroke: none; stroke-width: 1; stroke-dasharray: none; stroke-linecap: butt; stroke-dashoffset: 0; stroke-linejoin: miter; stroke-miterlimit: 4; fill: rgb(255,255,255); fill-rule: nonzero; opacity: 1;" vector-effect="non-scaling-stroke"  transform=" translate(-475.25, -177.5)" d="M 438.5 173.9 C 436.5 173.9 434.9 175.5 434.9 177.5 C 434.9 179.5 436.5 181.1 438.5 181.1 L 512 181.1 C 514 181.1 515.6 179.5 515.6 177.5 C 515.6 175.5 514 173.9 512 173.9 L 438.5 173.9 z" stroke-linecap="round" />
</g>
<g transform="matrix(1 0 0 1 347.62 312.13)"  >
<path style="stroke: none; stroke-width: 1; stroke-dasharray: none; stroke-linecap: butt; stroke-dashoffset: 0; stroke-linejoin: miter; stroke-miterlimit: 4; fill: rgb(47,46,65); fill-rule: nonzero; opacity: 1;" vector-effect="non-scaling-stroke"  transform=" translate(-187.81, -43.27)" d="M 207.1 13.1 C 204.7 12.799999999999999 202.4 14.1 200 14.7 C 195.1 15.799999999999999 190.1 13.5 185 13.6 C 180.7 13.799999999999999 176.5 15.1 172.7 17.3 C 169.7 18.7 166.89999999999998 20.7 164.5 23 C 162.1 25.4 160.7 28.6 160.6 32 C 160.9 33.9 160.9 35.9 160.4 37.9 C 159.9 38.9 159.3 39.8 158.6 40.6 C 157.29999999999998 42.6 157 45.1 157.79999999999998 47.4 C 158.79999999999998 49.6 160.2 51.699999999999996 161.79999999999998 53.5 C 164.99999999999997 57.7 167.1 62.6 169.99999999999997 67.1 C 171.29999999999998 69 172.69999999999996 70.8 174.29999999999998 72.5 C 174.6 72.8 174.89999999999998 73 175.2 73.2 C 175.5 73.3 175.89999999999998 73.4 176.29999999999998 73.4 C 182.49999999999997 73.60000000000001 188.89999999999998 73.7 194.49999999999997 71.30000000000001 C 196.29999999999998 70.70000000000002 197.89999999999998 69.4 198.89999999999998 67.80000000000001 C 199.7 65.50000000000001 199.89999999999998 63.10000000000001 199.29999999999998 60.80000000000001 C 198.99999999999997 58.20000000000001 199.1 55.60000000000001 199.49999999999997 53.000000000000014 C 199.49999999999997 52.100000000000016 199.89999999999998 51.30000000000001 200.49999999999997 50.70000000000002 C 201.39999999999998 50.100000000000016 202.59999999999997 50.100000000000016 203.59999999999997 50.600000000000016 C 204.59999999999997 51.100000000000016 205.59999999999997 51.40000000000001 206.69999999999996 51.500000000000014 C 208.79999999999995 51.500000000000014 210.19999999999996 49.100000000000016 210.59999999999997 47.000000000000014 C 210.09999999999997 43.100000000000016 211.79999999999995 39.30000000000001 214.99999999999997 37.100000000000016 C 217.99999999999997 33.30000000000002 218.99999999999997 28.400000000000016 217.69999999999996 23.800000000000015 C 216.19999999999996 19.100000000000016 211.89999999999995 13.600000000000016 207.09999999999997 13.100000000000016 z" stroke-linecap="round" />
</g>
<g transform="matrix(1 0 0 1 599.26 768)"  >
<path style="stroke: none; stroke-width: 1; stroke-dasharray: none; stroke-linecap: butt; stroke-dashoffset: 0; stroke-linejoin: miter; stroke-miterlimit: 4; fill: rgb(63,61,86); fill-rule: nonzero; opacity: 1;" vector-effect="non-scaling-stroke"  transform=" translate(-439.45, -499.15)" d="M 583.6 540.2 L 295.3 540.2 C 292.40000000000003 540.2 290 537.8000000000001 290 534.9000000000001 L 290 463.4000000000001 C 290 460.5000000000001 292.4 458.1000000000001 295.3 458.1000000000001 L 583.6 458.1000000000001 C 586.5 458.1000000000001 588.9 460.50000000000006 588.9 463.4000000000001 L 588.9 534.9000000000001 C 588.9 537.8000000000001 586.5 540.2 583.6 540.2 z M 295.3 460.1 C 293.5 460.1 292.1 461.5 292.1 463.3 L 292.1 534.8 C 292.1 536.5999999999999 293.5 538 295.3 538 L 583.6 538 C 585.4 538 586.8000000000001 536.6 586.8000000000001 534.8 L 586.8000000000001 463.29999999999995 C 586.8000000000001 461.49999999999994 585.4000000000001 460.09999999999997 583.6 460.09999999999997 L 295.3 460.09999999999997 z" stroke-linecap="round" />
</g>
<g transform="matrix(1 0 0 1 399.35 506.14)"  >
<path style="stroke: none; stroke-width: 1; stroke-dasharray: none; stroke-linecap: butt; stroke-dashoffset: 0; stroke-linejoin: miter; stroke-miterlimit: 4; fill: rgb(255,184,184); fill-rule: nonzero; opacity: 1;" vector-effect="non-scaling-stroke"  transform=" translate(-239.54, -237.29)" d="M 256.9 278.4 L 247.2 175.29999999999998 L 218.2 176.29999999999998 L 241.2 278.09999999999997 C 236.1 282.4 235.5 289.9 239.7 294.99999999999994 C 244 300.09999999999997 251.5 300.69999999999993 256.59999999999997 296.49999999999994 C 261.69999999999993 292.29999999999995 262.29999999999995 284.69999999999993 258.09999999999997 279.59999999999997 L 256.9 278.4 z" stroke-linecap="round" />
</g>
<g transform="matrix(1 0 0 1 394.01 420.15)"  >
<path style="stroke: none; stroke-width: 1; stroke-dasharray: none; stroke-linecap: butt; stroke-dashoffset: 0; stroke-linejoin: miter; stroke-miterlimit: 4; fill: rgb(151,213,200); fill-rule: nonzero; opacity: 1;" vector-effect="non-scaling-stroke"  transform=" translate(-234.2, -151.3)" d="M 257.2 177.3 L 213.2 187.3 L 211.2 115.30000000000001 L 236.2 116.30000000000001 L 257.2 177.3 z" stroke-linecap="round" />
</g>
<g transform="matrix(1 0 0 1 350.66 786.25)"  >
<path style="stroke: none; stroke-width: 1; stroke-dasharray: none; stroke-linecap: butt; stroke-dashoffset: 0; stroke-linejoin: miter; stroke-miterlimit: 4; fill: rgb(47,46,65); fill-rule: nonzero; opacity: 1;" vector-effect="non-scaling-stroke"  transform=" translate(-190.85, -517.4)" d="M 210.5 519.5 L 242.4 519.5 C 253.6 519.5 262.7 528.6 262.7 539.8 L 262.7 540.5 L 210.39999999999998 540.5 L 210.49999999999997 519.5 z M 130.3 494.3 L 157.10000000000002 511.6 C 166.50000000000003 517.7 169.3 530.3000000000001 163.20000000000002 539.7 L 162.8 540.3000000000001 L 119.00000000000001 511.9000000000001 L 130.3 494.30000000000007 z" stroke-linecap="round" />
</g>
<g transform="matrix(NaN NaN NaN NaN 0 0)"  >
<g style=""   >
</g>
</g>
<g transform="matrix(NaN NaN NaN NaN 0 0)"  >
<g style=""   >
</g>
</g>
<g transform="matrix(NaN NaN NaN NaN 0 0)"  >
<g style=""   >
</g>
</g>
<g transform="matrix(NaN NaN NaN NaN 0 0)"  >
<g style=""   >
</g>
</g>
<g transform="matrix(NaN NaN NaN NaN 0 0)"  >
<g style=""   >
</g>
</g>
</svg>