<?xml version="1.0" encoding="UTF-8" standalone="no" ?>
<!DOCTYPE svg PUBLIC "-//W3C//DTD SVG 1.1//EN" "http://www.w3.org/Graphics/SVG/1.1/DTD/svg11.dtd">
<svg xmlns="http://www.w3.org/2000/svg" xmlns:xlink="http://www.w3.org/1999/xlink" version="1.1" width="1080" height="1080" viewBox="0 0 1080 1080" xml:space="preserve">
<desc>Created with Fabric.js 5.2.4</desc>
<defs>
</defs>
<g transform="matrix(1 0 0 1 540 540)" id="459b7f15-9357-42d3-bcb2-3dfd1e4aae8f"  >
<rect style="stroke: none; stroke-width: 1; stroke-dasharray: none; stroke-linecap: butt; stroke-dashoffset: 0; stroke-linejoin: miter; stroke-miterlimit: 4; fill: rgb(255,255,255); fill-rule: nonzero; opacity: 1; visibility: hidden;" vector-effect="non-scaling-stroke"  x="-540" y="-540" rx="0" ry="0" width="1080" height="1080" />
</g>
<g transform="matrix(1 0 0 1 540 540)" id="3462266f-bf71-4252-83c6-ee584e290f1a"  >
</g>
<g transform="matrix(1 0 0 1 540 540)"  >
<rect style="stroke: none; stroke-width: 1; stroke-dasharray: none; stroke-linecap: butt; stroke-dashoffset: 0; stroke-linejoin: miter; stroke-miterlimit: 4; fill: rgb(255,255,255); fill-rule: nonzero; opacity: 1; visibility: hidden;" vector-effect="non-scaling-stroke"  x="-540" y="-540" rx="0" ry="0" width="1080" height="1080" />
</g>
<g transform="matrix(1 0 0 1 856.07 794.9)"  >
<path style="stroke: none; stroke-width: 1; stroke-dasharray: none; stroke-linecap: butt; stroke-dashoffset: 0; stroke-linejoin: miter; stroke-miterlimit: 4; fill: rgb(241,241,241); fill-rule: nonzero; opacity: 1;" vector-effect="non-scaling-stroke"  transform=" translate(-724.94, -546.48)" d="M 747.9 525.4 C 755.1 538.1 749 581 749 581 C 749 581 709.1 564.1 701.9 551.4 C 694.6999999999999 538.6999999999999 699.1999999999999 522.6 711.9 515.4 C 724.6 508.2 740.6999999999999 512.6999999999999 747.9 525.4 z" stroke-linecap="round" />
</g>
<g transform="matrix(1 0 0 1 861.83 796.56)"  >
<path style="stroke: none; stroke-width: 1; stroke-dasharray: none; stroke-linecap: butt; stroke-dashoffset: 0; stroke-linejoin: miter; stroke-miterlimit: 4; fill: rgb(255,255,255); fill-rule: nonzero; opacity: 1;" vector-effect="non-scaling-stroke"  transform=" translate(-730.7, -548.15)" d="M 749.6 580.9 L 748.8000000000001 581.1 C 740.6 542.3000000000001 712.1 516 711.8000000000001 515.8000000000001 L 712.4000000000001 515.2 C 712.6000000000001 515.4000000000001 741.4000000000001 541.8000000000001 749.6000000000001 580.9000000000001 z" stroke-linecap="round" />
</g>
<g transform="matrix(1 0 0 1 912.32 781.9)"  >
<path style="stroke: none; stroke-width: 1; stroke-dasharray: none; stroke-linecap: butt; stroke-dashoffset: 0; stroke-linejoin: miter; stroke-miterlimit: 4; fill: rgb(241,241,241); fill-rule: nonzero; opacity: 1;" vector-effect="non-scaling-stroke"  transform=" translate(-781.19, -533.49)" d="M 813.2 539.8 C 803.5 557.5 748.5 581.4 748.5 581.4 C 748.5 581.4 739.4 522.1 749.2 504.5 C 758.9000000000001 486.8 781.2 480.4 798.9000000000001 490.1 C 816.5000000000001 499.90000000000003 822.9000000000001 522.1 813.2 539.8000000000001 z" stroke-linecap="round" />
</g>
<g transform="matrix(1 0 0 1 905.03 784.56)"  >
<path style="stroke: none; stroke-width: 1; stroke-dasharray: none; stroke-linecap: butt; stroke-dashoffset: 0; stroke-linejoin: miter; stroke-miterlimit: 4; fill: rgb(255,255,255); fill-rule: nonzero; opacity: 1;" vector-effect="non-scaling-stroke"  transform=" translate(-773.9, -536.15)" d="M 749 582.1 L 748.2 581.2 C 788 543.4000000000001 798.3000000000001 490.80000000000007 798.4000000000001 490.20000000000005 L 799.6000000000001 490.40000000000003 C 799.4000000000001 491.00000000000006 789.0000000000001 544.1 749.0000000000001 582.1 z" stroke-linecap="round" />
</g>
<g transform="matrix(1 0 0 1 322.64 451.35)"  >
<path style="stroke: none; stroke-width: 1; stroke-dasharray: none; stroke-linecap: butt; stroke-dashoffset: 0; stroke-linejoin: miter; stroke-miterlimit: 4; fill: rgb(63,61,86); fill-rule: nonzero; opacity: 1;" vector-effect="non-scaling-stroke"  transform=" translate(-191.51, -202.94)" d="M 192.6 405.9 C 186.29999999999998 405.9 180 405.09999999999997 174 403.5 L 172.8 403.2 L 171.70000000000002 402.59999999999997 C 131.5 382.4 97.50000000000001 355.79999999999995 70.80000000000001 323.4 C 48.70000000000001 296.4 31.400000000000013 265.79999999999995 19.900000000000013 232.89999999999998 C 5.9 193.6 -0.8 152 0.1 110.3 L 0.1 108.3 C 0.1 88 11.4 70.2 28.8 62.9 C 42.1 57.3 163.2 7.6 172 4 C 188.5 -4.300000000000001 206.1 2.6 208.9 3.8 C 215.20000000000002 6.4 327.2 52.199999999999996 351.4 63.699999999999996 C 376.29999999999995 75.6 383 96.9 383 107.6 C 383 156.2 374.6 201.6 358 242.6 C 344.6 275.8 325.6 306.4 301.8 333.1 C 256 384.70000000000005 210.10000000000002 403 209.70000000000002 403.1 C 204.10000000000002 405.1 198.4 406 192.60000000000002 405.90000000000003 z M 181.79999999999998 379.2 C 185.79999999999998 380.09999999999997 194.89999999999998 381.4 200.89999999999998 379.3 C 208.49999999999997 376.5 246.89999999999998 356.6 282.7 316.3 C 332.3 260.5 357.4 190.4 357.4 107.9 C 357.29999999999995 106.2 356.09999999999997 94.30000000000001 340.29999999999995 86.80000000000001 C 316.6 75.5 200.2 27.9 199 27.4 L 198.7 27.299999999999997 C 196.29999999999998 26.299999999999997 188.5 24.099999999999998 183.1 26.9 L 182 27.4 C 180.7 27.9 52.099999999999994 80.69999999999999 38.400000000000006 86.5 C 28.800000000000004 90.5 25.400000000000006 100.4 25.400000000000006 108.3 L 25.400000000000006 110.8 C 24.400000000000006 167.2 37.50000000000001 306.1 181.8 379.2 z" stroke-linecap="round" />
</g>
<g transform="matrix(1 0 0 1 322.52 451.42)"  >
<path style="stroke: none; stroke-width: 1; stroke-dasharray: none; stroke-linecap: butt; stroke-dashoffset: 0; stroke-linejoin: miter; stroke-miterlimit: 4; fill: rgb(151,213,200); fill-rule: nonzero; opacity: 1;" vector-effect="non-scaling-stroke"  transform=" translate(-191.39, -203.01)" d="M 177.3 15.6 C 177.3 15.6 47.6 68.9 33.7 74.7 C 19.800000000000004 80.5 12.800000000000004 94.4 12.800000000000004 108.30000000000001 C 12.800000000000004 122.20000000000002 2.400000000000004 303.6 177.3 391.3 C 177.3 391.3 193.20000000000002 395.7 205.20000000000002 391.3 C 217.20000000000002 386.90000000000003 370.1 312.8 370.1 107.69999999999999 C 370.1 107.69999999999999 370.1 86.79999999999998 345.8 75.29999999999998 C 321.5 63.79999999999998 203.9 15.6 203.9 15.6 C 203.9 15.6 189.5 9.2 177.3 15.6 z" stroke-linecap="round" />
</g>
<g transform="matrix(1 0 0 1 257.47 447.86)"  >
<path style="stroke: none; stroke-width: 1; stroke-dasharray: none; stroke-linecap: butt; stroke-dashoffset: 0; stroke-linejoin: miter; stroke-miterlimit: 4; fill: rgb(0,0,0); fill-rule: nonzero; opacity: 0.1;" vector-effect="non-scaling-stroke"  transform=" translate(-126.35, -199.45)" d="M 191.2 57.3 L 191.2 341.6 C 191.2 341.6 60.3 278.6 61.5 113 L 191.2 57.3 z" stroke-linecap="round" />
</g>
<g transform="matrix(1 0 0 1 348.83 451.26)"  >
<path style="stroke: none; stroke-width: 1; stroke-dasharray: none; stroke-linecap: butt; stroke-dashoffset: 0; stroke-linejoin: miter; stroke-miterlimit: 4; fill: rgb(255,255,255); fill-rule: nonzero; opacity: 1;" vector-effect="non-scaling-stroke"  transform=" translate(-217.7, -202.85)" d="M 192.9 261.6 L 151.2 208 L 175.5 189.1 L 195.2 214.5 L 261.9 144.1 L 284.2 165.2 z" stroke-linecap="round" />
</g>
<g transform="matrix(1 0 0 1 689.73 786.81)"  >
<path style="stroke: none; stroke-width: 1; stroke-dasharray: none; stroke-linecap: butt; stroke-dashoffset: 0; stroke-linejoin: miter; stroke-miterlimit: 4; fill: rgb(255,184,184); fill-rule: nonzero; opacity: 1;" vector-effect="non-scaling-stroke"  transform=" translate(-558.6, -538.4)" d="M 547.2 568.2 L 562.7 568.2 L 570 508.6 L 547.2 508.6 z" stroke-linecap="round" />
</g>
<g transform="matrix(1 0 0 1 699.38 821.61)"  >
<path style="stroke: none; stroke-width: 1; stroke-dasharray: none; stroke-linecap: butt; stroke-dashoffset: 0; stroke-linejoin: miter; stroke-miterlimit: 4; fill: rgb(47,46,65); fill-rule: nonzero; opacity: 1;" vector-effect="non-scaling-stroke"  transform=" translate(-568.25, -573.2)" d="M 543.3 563.2 L 573.8 563.2 C 584.5 563.2 593.1999999999999 571.9000000000001 593.1999999999999 582.6 L 593.1999999999999 583.2 L 543.3 583.2 L 543.3 563.2 z" stroke-linecap="round" />
</g>
<g transform="matrix(1 0 0 1 741.73 786.81)"  >
<path style="stroke: none; stroke-width: 1; stroke-dasharray: none; stroke-linecap: butt; stroke-dashoffset: 0; stroke-linejoin: miter; stroke-miterlimit: 4; fill: rgb(255,184,184); fill-rule: nonzero; opacity: 1;" vector-effect="non-scaling-stroke"  transform=" translate(-610.6, -538.4)" d="M 599.2 568.2 L 614.7 568.2 L 622 508.6 L 599.2 508.6 z" stroke-linecap="round" />
</g>
<g transform="matrix(1 0 0 1 712.63 711.71)"  >
<path style="stroke: none; stroke-width: 1; stroke-dasharray: none; stroke-linecap: butt; stroke-dashoffset: 0; stroke-linejoin: miter; stroke-miterlimit: 4; fill: rgb(47,46,65); fill-rule: nonzero; opacity: 1;" vector-effect="non-scaling-stroke"  transform=" translate(-581.5, -463.3)" d="M 595.3 563.2 L 625.8 563.2 C 636.5 563.2 645.1999999999999 571.9000000000001 645.1999999999999 582.6 L 645.1999999999999 583.2 L 595.3 583.2 L 595.3 563.2 z M 571.5 358.8 L 575.2 548 L 545.2 546.1 L 524.4000000000001 425.6 L 517.8000000000001 343.40000000000003 z" stroke-linecap="round" />
</g>
<g transform="matrix(1 0 0 1 703.58 664.91)"  >
<path style="stroke: none; stroke-width: 1; stroke-dasharray: none; stroke-linecap: butt; stroke-dashoffset: 0; stroke-linejoin: miter; stroke-miterlimit: 4; fill: rgb(47,46,65); fill-rule: nonzero; opacity: 1;" vector-effect="non-scaling-stroke"  transform=" translate(-572.45, -416.5)" d="M 623 327 L 627.2 551 L 592.2 550 L 584.6 416.8 L 571.4 368.6 L 517.6999999999999 343.40000000000003 L 526.4999999999999 283.1 L 605.3999999999999 282 L 622.9999999999999 327 z" stroke-linecap="round" />
</g>
<g transform="matrix(1 0 0 1 693.83 348.01)"  >
<circle style="stroke: none; stroke-width: 1; stroke-dasharray: none; stroke-linecap: butt; stroke-dashoffset: 0; stroke-linejoin: miter; stroke-miterlimit: 4; fill: rgb(255,184,184); fill-rule: nonzero; opacity: 1;" vector-effect="non-scaling-stroke"  cx="0" cy="0" r="26.8" />
</g>
<g transform="matrix(1 0 0 1 697.73 464.86)"  >
<path style="stroke: none; stroke-width: 1; stroke-dasharray: none; stroke-linecap: butt; stroke-dashoffset: 0; stroke-linejoin: miter; stroke-miterlimit: 4; fill: rgb(204,204,204); fill-rule: nonzero; opacity: 1;" vector-effect="non-scaling-stroke"  transform=" translate(-566.6, -216.45)" d="M 584.9 137.7 L 589 144 L 600 174.6 L 591.2 294.1 L 539.7 295.20000000000005 L 533.2 158.20000000000005 L 546.9000000000001 141.00000000000006 z" stroke-linecap="round" />
</g>
<g transform="matrix(1 0 0 1 697.68 441.46)"  >
<path style="stroke: none; stroke-width: 1; stroke-dasharray: none; stroke-linecap: butt; stroke-dashoffset: 0; stroke-linejoin: miter; stroke-miterlimit: 4; fill: rgb(47,46,65); fill-rule: nonzero; opacity: 1;" vector-effect="non-scaling-stroke"  transform=" translate(-566.55, -193.04)" d="M 512.3 161.5 L 503.49999999999994 160.4 C 503.49999999999994 160.4 501.29999999999995 161.5 500.19999999999993 169.20000000000002 C 499.0999999999999 176.90000000000003 485.99999999999994 244.8 485.99999999999994 244.8 L 503.49999999999994 328.1 L 523.1999999999999 301.8 L 511.0999999999999 255.8 L 523.1999999999999 209.8 L 512.3 161.5 z M 624.1 160.4 L 630.7 160.4 L 647.1 249.2 L 631.8000000000001 318.2 L 616.4000000000001 293 L 620.8000000000001 265.6 L 618.6 241.50000000000003 L 611 227.20000000000002 z M 578.5 99.6 L 573.6 98.39999999999999 C 573.6 98.39999999999999 569.9 77.69999999999999 561.4 80.1 C 552.9 82.5 531 85 531 75.2 C 531 65.4 551.7 56.900000000000006 563.9 58.1 C 576.0999999999999 59.3 591.6999999999999 63.4 595.6 81.3 C 601.9 110 582.6 117.3 582.6 117.3 L 582.9 116.3 C 584.6999999999999 110.3 583 103.89999999999999 578.5 99.6 z" stroke-linecap="round" />
</g>
<g transform="matrix(1 0 0 1 701.31 486.92)"  >
<path style="stroke: none; stroke-width: 1; stroke-dasharray: none; stroke-linecap: butt; stroke-dashoffset: 0; stroke-linejoin: miter; stroke-miterlimit: 4; fill: rgb(47,46,65); fill-rule: nonzero; opacity: 1;" vector-effect="non-scaling-stroke"  transform=" translate(-570.19, -238.51)" d="M 504.7 160.4 L 539.8 146.20000000000002 L 548 140.20000000000002 L 572.7 249.20000000000002 L 584.2 136.90000000000003 L 629.7 160.50000000000003 L 614.4000000000001 235.00000000000003 L 612.2 263.5 L 618.8000000000001 286.5 C 618.8000000000001 286.5 641.8000000000001 302.9 634.1 320.5 C 626.4 338.1 617.5 339 617.5 339 C 617.5 339 580.2 303.9 578 295.2 C 575.8 286.5 572.5 271.09999999999997 572.5 271.09999999999997 C 572.5 271.09999999999997 553.9 341.19999999999993 532 340.09999999999997 C 510.1 339 510.1 315.99999999999994 510.1 315.99999999999994 L 515.6 291.8999999999999 L 524.4 266.69999999999993 L 520 225.09999999999994 L 504.7 160.39999999999992 z" stroke-linecap="round" />
</g>
<g transform="matrix(NaN NaN NaN NaN 0 0)"  >
<g style=""   >
</g>
</g>
</svg>